<svg xmlns="http://www.w3.org/2000/svg" xmlns:xlink="http://www.w3.org/1999/xlink" viewBox="0 0 40.3 40.32"><defs><style>.cls-1{fill:url(#linear-gradient);}.cls-2{fill:url(#linear-gradient-2);}</style><linearGradient id="linear-gradient" y1="20.16" x2="37.41" y2="20.16" gradientUnits="userSpaceOnUse"><stop offset="0" stop-color="#e2458f"/><stop offset="1" stop-color="#ad0860"/></linearGradient><linearGradient id="linear-gradient-2" x1="26.85" y1="36.79" x2="40.3" y2="36.79" xlink:href="#linear-gradient"/></defs><title>Asset 1</title><g id="Layer_2" data-name="Layer 2"><g id="Layer_1-2" data-name="Layer 1"><path class="cls-1" d="M13.67,19.27a10.73,10.73,0,1,1,14-16.22,10.81,10.81,0,0,1-1,16.18c.87.39,1.71.73,2.53,1.12A19.51,19.51,0,0,1,36.92,27c.71,1,.65,1.83-.17,2.44a1.6,1.6,0,0,1-2.38-.61A17.3,17.3,0,0,0,21.8,21.49c.07.39.14.75.21,1.12.89,4.1,1.76,8.2,2.67,12.3a1.85,1.85,0,0,1-.54,1.87c-.93.93-1.85,1.88-2.8,2.8a1.68,1.68,0,0,1-2.61,0c-.93-.89-1.82-1.82-2.74-2.73a2,2,0,0,1-.57-2c.91-4,1.78-8,2.66-12,.08-.4.17-.8.27-1.29a12.82,12.82,0,0,0-5.18,1.3A17.1,17.1,0,0,0,3.31,34.62c-.43,1.71.2,2.5,2,2.5,1.94,0,3.9,0,5.84,0a2.36,2.36,0,0,1,1.6.56A1.86,1.86,0,0,1,13,39.33a1.71,1.71,0,0,1-1.28.89,64.89,64.89,0,0,1-7.38,0A4.67,4.67,0,0,1,.18,34.11,20.1,20.1,0,0,1,12.92,19.58ZM20.1,3.14a7.53,7.53,0,0,0-7.52,7.47,7.56,7.56,0,1,0,15.11-.07A7.54,7.54,0,0,0,20.1,3.14Zm0,33.39a11.47,11.47,0,0,0,.74-.93c.21-.32.57-.72.52-1-.37-1.94-.83-3.87-1.31-6-.47,2.14-.9,4-1.29,5.94a1.15,1.15,0,0,0,.21.79A16.14,16.14,0,0,0,20.1,36.53Z"/><path class="cls-2" d="M32.09,40.28c-1.14,0-2.28,0-3.42,0s-1.81-.63-1.82-1.56.65-1.56,1.8-1.58c2.1,0,4.2,0,6.29,0,1.69,0,2.14-.45,2.14-2.11a1.6,1.6,0,0,1,1.47-1.72,1.64,1.64,0,0,1,1.69,1.52,4.82,4.82,0,0,1-4.83,5.46C34.31,40.31,33.2,40.28,32.09,40.28Z"/></g></g></svg>