<svg xmlns="http://www.w3.org/2000/svg" xmlns:xlink="http://www.w3.org/1999/xlink" viewBox="0 0 329.73 62.96"><defs><style>.cls-1{fill:#fff;stroke:#8a8c8f;stroke-miterlimit:10;}.cls-2{font-size:28.4px;font-family:CenturyGothic-Bold, Century Gothic;font-weight:700;}.cls-3{fill:url(#linear-gradient);}.cls-4{fill:url(#linear-gradient-2);}.cls-5{fill:url(#linear-gradient-3);}</style><linearGradient id="linear-gradient" x1="70.52" y1="26.73" x2="101.15" y2="26.73" gradientUnits="userSpaceOnUse"><stop offset="0" stop-color="#057da4"/><stop offset="0.98" stop-color="#069ec7"/><stop offset="1"/></linearGradient><linearGradient id="linear-gradient-2" x1="96.24" y1="36.96" x2="117.56" y2="36.96" xlink:href="#linear-gradient"/><linearGradient id="linear-gradient-3" x1="74.62" y1="48.53" x2="82.18" y2="48.53" xlink:href="#linear-gradient"/></defs><title>Asset 9</title><g id="Layer_2" data-name="Layer 2"><g id="Layer_1-2" data-name="Layer 1"><rect class="cls-1" x="0.5" y="0.5" width="328.73" height="61.96" rx="9.2"/><text class="cls-2" transform="translate(122.15 41.41)">App Store</text><path class="cls-3" d="M82.9,33c1.22-2.08,2.45-4.15,3.66-6.23,1.09-1.87,2.13-3.78,3.27-5.62a1.5,1.5,0,0,0-.09-1.85,51.64,51.64,0,0,1-2.56-4.53,2.68,2.68,0,0,1,.31-3A3.31,3.31,0,0,1,93,12l1,1.67a5.92,5.92,0,0,0,.88-1.36c1-1.79,2.94-2.44,4.53-1.55a3.31,3.31,0,0,1,1.12,4.83L90.9,32.3c-.16.29-.29.59-.44.89-.62,1.05-1.23,2.11-1.85,3.18a1.49,1.49,0,0,0,.88.12h6.67a3.93,3.93,0,0,1,4.08,3.93c0,.28,0,.55,0,.83a1.68,1.68,0,0,1-1.79,1.81H98c-7.91,0-15.83,0-23.74,0a3.58,3.58,0,0,1-3.64-2.39,2.63,2.63,0,0,1,.15-2,3.46,3.46,0,0,1,3.43-2.15c2,0,4,0,6,0a1,1,0,0,0,1-.59C81.8,34.93,82.36,34,82.9,33Z"/><path class="cls-4" d="M97.51,32.86a10.22,10.22,0,0,1-1.1-6.92,9,9,0,0,1,1.48-3.44c.49-.77.75-.75,1.21,0,1.74,3,3.47,6,5.22,9,.24.43.52.84.78,1.25.6,1.05,1.21,2.09,1.78,3.16a.89.89,0,0,0,.92.51c2.06,0,4.12,0,6.18,0a3.4,3.4,0,0,1,3.58,3.3A3.29,3.29,0,0,1,114,43.08c-.79,0-1.59,0-2.39,0-.47,0-.6.09-.33.54.65,1.09,1.29,2.17,1.89,3.28a3.26,3.26,0,0,1-2.06,5,2.76,2.76,0,0,1-2.75-.68,11.46,11.46,0,0,1-1.77-2.65q-2.25-3.77-4.45-7.57C100.6,38.28,99,35.58,97.51,32.86Z"/><path class="cls-5" d="M78.46,45A7.29,7.29,0,0,1,81.84,46c.35.22.44.41.21.79-.79,1.31-1.54,2.65-2.35,4a2.74,2.74,0,0,1-5-2.27,7.29,7.29,0,0,1,1.52-2.66A2.62,2.62,0,0,1,78.46,45Z"/></g></g></svg>