<svg xmlns="http://www.w3.org/2000/svg" xmlns:xlink="http://www.w3.org/1999/xlink" viewBox="0 0 46.45 30.34"><defs><style>.cls-1{fill:url(#linear-gradient);}</style><linearGradient id="linear-gradient" y1="15.17" x2="46.45" y2="15.17" gradientUnits="userSpaceOnUse"><stop offset="0" stop-color="#e2458f"/><stop offset="1" stop-color="#ad0860"/></linearGradient></defs><title>Asset 3</title><g id="Layer_2" data-name="Layer 2"><g id="Layer_1-2" data-name="Layer 1"><path class="cls-1" d="M4.48,8.26A19.27,19.27,0,0,1,2.33,6.57,1.48,1.48,0,0,1,3,4a8.24,8.24,0,0,1,2.32-.4c1.09,0,1.26.17,2.09,1.71C8.65,4.1,9.92,2.9,11.18,1.68A5.69,5.69,0,0,1,15.27,0H31.21a5.61,5.61,0,0,1,4,1.64L39,5.29c1.22-1.79,2.4-2.14,4.4-1.32a1.53,1.53,0,0,1,.66,2.64,5.14,5.14,0,0,1-.92.82c-.34.23-.71.4-1.32.73.71.65,1.36,1.2,2,1.8a8.69,8.69,0,0,1,2.61,6.33c0,1.82.08,3.66,0,5.48a5.84,5.84,0,0,1-.74,2.74,4.58,4.58,0,0,0-.7,2.81,4.14,4.14,0,0,1,0,.93,2.48,2.48,0,0,1-2.38,2.07q-1.6,0-3.21,0a2.33,2.33,0,0,1-2.4-2.1c-.1-.64-.32-.86-1-.86q-12.73,0-25.47,0c-.59,0-.84.17-.94.78A2.35,2.35,0,0,1,7,30.32c-1,0-2,0-3,0a2.42,2.42,0,0,1-2.47-2.51,5.23,5.23,0,0,0-.9-3.59,2.87,2.87,0,0,1-.53-1.65c0-2.48-.16-5,0-7.45A7.94,7.94,0,0,1,2.65,9.94C3.24,9.37,3.86,8.83,4.48,8.26Zm3.73.25H38.52C37.07,7,35.57,5.34,34,3.76a4.06,4.06,0,0,0-3-1.34c-5.17,0-10.35,0-15.52,0A3.88,3.88,0,0,0,13,3.3C11.25,5,9.66,6.92,8.21,8.51Zm25.88,7.31H12.67c0,.37,0,.68,0,1,.24,2,1.45,3.35,3,3.36,5,0,10,0,15,0A2.27,2.27,0,0,0,32.89,19,32.42,32.42,0,0,0,34.09,15.82ZM13.55,22.06a2.41,2.41,0,0,0,2.31,2.59q7.35.06,14.69,0a2.34,2.34,0,0,0,2.3-2.59ZM6.23,17.67v.1c1-.1,1.93-.13,2.87-.32.45-.09,1.14-.41,1.2-.73a1.65,1.65,0,0,0-.57-1.4,46.25,46.25,0,0,0-4.15-2.65,2.29,2.29,0,0,0-2.86.43A2.62,2.62,0,0,0,2.11,16a2.49,2.49,0,0,0,2.37,1.7C5.06,17.72,5.65,17.67,6.23,17.67Zm33.93.11a17.57,17.57,0,0,0,2.73-.35,2.48,2.48,0,0,0,1.52-3.12,2.44,2.44,0,0,0-2.69-1.89,10.44,10.44,0,0,0-5.31,3.21c-.74.83-.45,1.59.65,1.79S39.1,17.66,40.16,17.78ZM11.6,24.66C10,22.34,8.54,20.2,5.38,20.91a3.55,3.55,0,0,1-1,0c-.88-.09-1.14.45-1.21,1.18a2.67,2.67,0,0,0,2.62,2.54C7.65,24.72,9.54,24.66,11.6,24.66Zm23.12,0c2.26,0,4.25.12,6.22-.06a3.39,3.39,0,0,0,2-1.3,2.3,2.3,0,0,0,.14-1.8c-.08-.28-.8-.49-1.25-.53-1.06-.07-2.13,0-3.2,0-.27,0-.64,0-.78.15C36.83,22.18,35.87,23.32,34.72,24.63Z"/></g></g></svg>