<svg xmlns="http://www.w3.org/2000/svg" viewBox="0 0 39.6 35.04"><defs><style>.cls-1{fill:#fff;}</style></defs><title>السلة</title><g id="Layer_2" data-name="Layer 2"><g id="Layer_1-2" data-name="Layer 1"><path class="cls-1" d="M38.47,11.7H36.91c-1.33,0-2.59,0-3.88,0h-.2a.9.9,0,0,1-.12-.16C31.21,9,29.65,6.41,28.15,3.92L26.78,1.65l-.09-.14a3.66,3.66,0,0,0-.51-.74A2.2,2.2,0,0,0,23.35.33a2.18,2.18,0,0,0-1,2.7A4.64,4.64,0,0,0,22.8,4l4.63,7.71H12.2L13.8,9,17,3.62a2.48,2.48,0,0,0,.23-2.24A2.21,2.21,0,0,0,15.68.09,2.33,2.33,0,0,0,13,1.43L10.49,5.56C9.27,7.6,8,9.63,6.83,11.67l0,.05h0c-.87,0-1.75,0-2.6,0H0v4.61H2.69l.84,4.45q1,5.18,2,10.36A4.56,4.56,0,0,0,10.23,35H29.38a4.62,4.62,0,0,0,4.78-4q.71-3.72,1.4-7.45c.25-1.34.51-2.69.76-4,.18-.93.35-1.87.54-2.82l.09-.46H39.6V11.7Zm-6.25,4.65,0,.33c-.22,1.16-.43,2.31-.64,3.46-.29,1.52-.57,3.05-.86,4.57-.32,1.7-.63,3.4-1,5.11a5,5,0,0,1-.14.57,2.68,2.68,0,0,1-.57,0H10.62a2.61,2.61,0,0,1-.57,0,4.06,4.06,0,0,1-.15-.58L8.67,23.23,7.38,16.35Z"/></g></g></svg>