<svg id="Layer_1" data-name="Layer 1" xmlns="http://www.w3.org/2000/svg" viewBox="0 0 57.3 56.26"><defs><style>.cls-1{fill:#970863;}</style></defs><title>تطبيق الزهور577777</title><path class="cls-1" d="M55.09,38.19c-.39-.26-.81-.48-1.23-.71l-.38-.19a15.24,15.24,0,0,1-6.09-5.42c-.29-.45-.62-1-.68-1.06a7.09,7.09,0,0,1,1-.74l-.45-.68.64.55a19.45,19.45,0,0,0,3.32-2.77,5.25,5.25,0,0,0,.68-6.06,5.48,5.48,0,0,0-5-3.09c-.32,0-.65,0-1,0,0-4.28-.64-8.7-4-12.37A17.19,17.19,0,0,0,29.22,0,17.87,17.87,0,0,0,17.78,3.46c-4.38,3.25-6.45,7.89-6.41,14.59,0,0-.07,0-.1,0a6,6,0,0,0-4.64,1.42,5.56,5.56,0,0,0-1.9,4.06,6,6,0,0,0,1.9,4.38,18.18,18.18,0,0,0,2.55,1.93l.74.49a3.29,3.29,0,0,0,.58.35,3.09,3.09,0,0,1-.33.71,15,15,0,0,1-6.41,5.93l-.32.16a11.67,11.67,0,0,0-1.8,1.09,4.09,4.09,0,0,0-.81,5.74A7.37,7.37,0,0,0,3,46.21,15.32,15.32,0,0,0,6.28,47.6a1.39,1.39,0,0,1,1.09.9A4.58,4.58,0,0,0,11,51.43a17.8,17.8,0,0,0,2.54.26,11.69,11.69,0,0,1,6,1.74,16.78,16.78,0,0,0,9.09,2.83,17,17,0,0,0,9.08-2.83,10.83,10.83,0,0,1,5.45-1.71c.7,0,1.41,0,2.09-.1,2.26-.22,3.64-1.06,4.32-2.61.45-1,1.13-1.28,2.25-1.74a13,13,0,0,0,4.09-2.41,4,4,0,0,0,1.36-3.35A4.48,4.48,0,0,0,55.09,38.19ZM12.24,35.35a21.82,21.82,0,0,0,2.38-4.54c.58-1.35.32-1.87-.87-2.71-1-.67-2-1.28-3-2a10,10,0,0,1-1.13-.84,1.81,1.81,0,0,1,1.64-3.22c1,.29,2,.68,3,1s1.22.13,1.22-.93a60.69,60.69,0,0,1,.13-8c.74-5.22,4.06-8.32,9-9.7a14.19,14.19,0,0,1,9.57.58c5.16,2.16,7.45,6.25,7.61,11.69v1.78h.06c-.06,1.22-.16,2.44-.22,3.67,0,1,.22,1.22,1.22.87.68-.23,1.35-.52,2-.74A8.35,8.35,0,0,1,46.55,22a1.58,1.58,0,0,1,1.77.9A1.75,1.75,0,0,1,47.93,25a7,7,0,0,1-1.25,1c-.94.67-1.94,1.29-2.9,1.93-1.52,1-1.71,1.55-1.06,3.32a16.52,16.52,0,0,0,6.47,8.09c1,.67,2.1,1.22,3.16,1.87.29.16.77.51.74.7a1.46,1.46,0,0,1-.74.84,26.47,26.47,0,0,1-3.42,1.32c-1.38.39-2.54.87-2.61,2.61,0,.32-.61.71-1,.9a2.79,2.79,0,0,1-1.28.17,15.23,15.23,0,0,0-8.8,2.57,11,11,0,0,1-8.44,1.78,12.44,12.44,0,0,1-4.38-1.58A17.08,17.08,0,0,0,13,47.69c-1.48,0-2.06-.06-2.29-1.8a2.37,2.37,0,0,0-1-1.32A8,8,0,0,0,8.14,44C7.05,43.6,6,43.21,4.92,42.73a1.53,1.53,0,0,1-.74-.87c0-.19.45-.55.77-.71A19,19,0,0,0,12.24,35.35Z"/></svg>