<svg id="Layer_1" data-name="Layer 1" xmlns="http://www.w3.org/2000/svg" viewBox="0 0 69.09 69.47"><defs><style>.cls-1{fill:#818386;}</style></defs><title>تطبيق الزهور577777</title><path class="cls-1" d="M4.77,28.12H0V13H19.73C18,8.36,18,4.21,22.4,1.32,25.78-.91,30.69-.14,34.49,2.93c4-3.35,8.34-4.09,12.66-.84,3.63,2.74,3.91,6.54,2.17,10.82H69.09V28.06H64.37V69.47H4.77Zm55.42.08H9V65.38H60.19ZM4,23.91H28V17.26H4Zm37.07,0h24V17.25h-24ZM32.52,12.85V9.92c0-4.17-1.55-5.71-5.67-5.7-2.32,0-3.83,1.26-4.07,3.35-.28,2.53,1.11,5,3.26,5.23A60.4,60.4,0,0,0,32.52,12.85Zm4.16.14h4.17a4.86,4.86,0,0,0,1.53-.09,7.33,7.33,0,0,0,2.45-1.13,4,4,0,0,0,1-5C44.91,4.82,43,4,40.52,4.27a4.11,4.11,0,0,0-3.8,3.47A45.53,45.53,0,0,0,36.68,13Zm-4.45,4.23v6.65h4.64V17.22Z"/><path class="cls-1" d="M29.68,34.9c1.39.51,2.76,1,4.16,1.5a2,2,0,0,0,1.35,0c3.66-1.93,7.22-1.59,9.84,1A8.28,8.28,0,0,1,46.2,47.71c-2.25,4-5.78,6.82-9.37,9.52-2.25,1.7-2.33,1.7-4.54,0-3.67-2.76-7.29-5.6-9.54-9.77-2.73-5.06-.16-11,5.3-12.15.5-.11,1-.14,1.53-.2Zm4.83,8.28-1.36-1.8c-1.68-2.21-3.81-2.74-5.78-1.44-1.77,1.18-2.19,3.39-1,5.64,1.8,3.38,4.73,5.68,7.68,7.94a1.29,1.29,0,0,0,1.17-.15,29.92,29.92,0,0,0,3.88-3.3,30.18,30.18,0,0,0,3.8-5,3.78,3.78,0,0,0-1.31-5.17,3.89,3.89,0,0,0-5.26,1C35.75,41.56,35.21,42.3,34.51,43.18Z"/></svg>