<svg id="Layer_1" data-name="Layer 1" xmlns="http://www.w3.org/2000/svg" viewBox="0 0 105.05 108.83"><defs><style>.cls-1{fill:#080604;}.cls-2{fill:#5c9615;}.cls-3{fill:#de4033;}.cls-4{fill:#8fae00;}.cls-5{fill:#b01b1b;}.cls-6{fill:#e9ebec;}</style></defs><title>تطبيق الزهور577777</title><path class="cls-1" d="M31.23,72.34a8.18,8.18,0,0,0-3.88-4.51c-2.47-1.39-3.75-4.81-5.83-5.58-1.82-.67-4.59,2.36-7.4,2.77a29.34,29.34,0,0,1-11.9-1A2.53,2.53,0,0,1,0,60.9c.82-6.44,2-12.69,8.19-16.43,1.12-.67.65-1.19.12-1.9C2.37,34.51,6,24,14.13,19.3c1.95-1.14,2.09-2,1.41-4-1.51-4.42-.89-8.92.17-13.39.4-1.69,1.48-2,3-1.93C25.11.41,31.2,1.66,35.3,7.27c1.13,1.55,1.68.33,2.41-.14A20,20,0,0,1,55.12,4.64,16.2,16.2,0,0,1,66.48,15.78c6-3.54,12-4.13,18.31-1.46,9.4,4,14,14.69,9.67,22.48-.69,1.22-.1,1.54.81,2,6.38,3.41,8.42,9.46,9.71,16,.3,1.51-.39,2.3-1.72,2.8C99,59.21,94.62,60.44,90,59.55c-1.66-.32-2.25.2-3,1.64A15.81,15.81,0,0,1,73,70.6,2.94,2.94,0,0,0,70.14,72a33.52,33.52,0,0,0-4.36,9.47c-.38,1.61-1.33,3.34.81,4.58.54.3.52,1,.28,1.69a9.76,9.76,0,0,0,3.4,11.42c2.93,2.28,3,3.11-.18,5-7.77,4.72-16.36,5.17-25.07,4.3-5-.5-10-1.56-14.2-4.66-2.44-1.79-2.48-2.55-.13-4.36a12.41,12.41,0,0,0,3.6-4.16c.36-.71,1.08-1.56.56-2.26-.67-.89-1.49,0-2.2.3a15.43,15.43,0,0,1-11.17-.1c-6.08-2.37-6.87-7.42-1.83-11.51a1.53,1.53,0,0,0,.69-1.93C19.19,74.1,22.52,70.9,28.23,72c1,.18,2,1.14,3.08.35,0,.14-.07.28-.1.43l.39-.07Zm1.93-33.89v0c1.09-.07,2.21.13,3.07-.92,3.39-4.18,1-12.9-4.44-15.17L32,25.45Q30.23,33.58,21.69,35c-5.33.88-7.94-.56-11.32-6.37a10.41,10.41,0,0,0,.18,10.86A12.73,12.73,0,0,0,22,45.55a2.22,2.22,0,0,0,1.81-1c2.28-2.81,5.37-4.4,8.63-5.73ZM43.62,65.58h0C51.65,63,55,53.82,50.37,47.25c-.63-.87-1.23-2.38-2.47-1.92s-.46,2-.5,3c-1,4.26-4.64,7.26-9.49,7.9-5.43.72-8.8-1.26-12.24-7.33a7,7,0,0,0-1.9,4.71C22.91,63,32.55,69.5,42.32,66.13A1.16,1.16,0,0,0,43.62,65.58Zm15.85-50c-2.9,4.66-7.12,6.82-12.53,6-5.18-.82-8.54-3.87-9.19-9.78C37,12.9,36.42,13.52,36,14.22c-1.46,2.55-2.3,4.88.84,7.09a8.9,8.9,0,0,1,3.76,6.19c.36,3.66,2.73,4.34,5.6,4.85A12.33,12.33,0,0,0,54,31.5c3.28-.95,6.16-2.19,6.45-6.32a11.17,11.17,0,0,1,1.44-4c1.78-3.52,1.16-6.42-2.1-8.94ZM84.33,40.89a10.78,10.78,0,0,0,6.82-15.25l-3.15,4c-4.36,2.89-8.82,2.55-13.07,0s-6-6.33-4.76-11.38c-7,3.42-8.5,13.47-2.91,18.59a3.43,3.43,0,0,0,2.52.85A19.08,19.08,0,0,1,80,40.78c1,.62,1.92,1.25,3.12.6L84,41h.18Zm-8.6,25.36c7.47-1.82,11.18-9.34,7.68-15.94a16.12,16.12,0,0,1-2.77,4.11c-4.28,3-8.74,2.8-13.07.3s-6.25-6.3-5-11.63a10.33,10.33,0,0,0-5.93,7c-1.38,4.89.3,9,3.79,12.31C64.73,66.55,69.86,68,75.73,66.25ZM34.79,70.58c2.79,4.74,4.79,9.11,5.07,14,.08,1.31,1,1.44,1.87,1.59a48.32,48.32,0,0,0,18.06-.08c1-.19,1.64-.46,1.73-1.71a26.55,26.55,0,0,1,4.31-12.38c1-1.58.42-2.15-1-2.61a9.1,9.1,0,0,1-2.26-1c-1.73-1.13-2.72-.55-3.66,1.12a24.9,24.9,0,0,0-2.74,9.08c-.18,1.31,0,3-2,2.78s-1.49-1.91-1.47-3.2a19.68,19.68,0,0,1,3.85-11.72c1.69-2.29-.46-3.59-1.54-4.64-1.32-1.28-1.53.9-2.16,1.52-1.46,1.45-2.74,3.12-4.58,4.08-1.61.84-2,1.73-1.11,3.42A22.22,22.22,0,0,1,49,79c.11,1.23-.32,2.35-1.7,2.51s-1.83-.93-1.95-2.19a33.85,33.85,0,0,0-.6-4.26c-1-4.4-1.33-4.65-5.69-4.45C37.8,70.63,36.58,70.58,34.79,70.58ZM57.5,104.75c-2.49-2.66-4.27-4.91-4.74-7.88-.15-1-.18-2,1-2.31a1.83,1.83,0,0,1,2.41,1.28,20.27,20.27,0,0,0,2,4.12c2.32,3.28,4.71,4,7.56,2.41,1-.53,1.53-.94.51-2-2.41-2.44-3.46-5.59-4-8.84-.31-1.7-1-1.87-2.48-1.61a51.79,51.79,0,0,1-18.08-.06c-1.59-.28-2.19.06-2.43,1.7a17.11,17.11,0,0,1-3.08,7.65c-1.78,2.46-1.29,3.51,1.8,4a3.67,3.67,0,0,0,2.86-.86,11.33,11.33,0,0,0,4.3-5.86c.4-1.25,1-2.49,2.55-2s1.15,2,.9,3.14c-.57,2.69-2.44,4.65-4.5,7.06A62.53,62.53,0,0,0,57.5,104.75ZM16.93,48.84c-3.19-2.27-6.18-2.91-8.82.29a16.47,16.47,0,0,0-2.28,3.62c-1.08,2.41-3,5.55-1.51,7.46,1.62,2.1,5.28,1.84,8.1,1.36,7-1.2,8.71-3.21,7.24-9.78a31.18,31.18,0,0,0-6.44,4.67c-1,.89-2.05,2.56-3.56,1s.21-2.78,1.27-3.71C12.82,52,14.86,50.5,16.93,48.84Zm46.39-11c-.86-1.59-1.67-3.25-2.64-4.81-.33-.52-.94,0-1.35.26a20.07,20.07,0,0,1-16.62,1.94c-1.35-.41-1.86.28-2.16,1.43-.38,1.43.58,1.47,1.54,1.64A16.85,16.85,0,0,1,53,44.69c.66.86,1.2,1.44,2,.16a15.27,15.27,0,0,1,7.32-5.92C62.83,38.74,63.33,38.57,63.32,37.88Zm24.45,5.94c1.75,1.08,3.28,1.9,4.67,2.91,1,.75,2.51,1.6,1.36,3.2s-2.29.53-3.42-.25-1.91-1.87-3.44-1.33c.39,1.22.82,2.26,1.06,3.35,1,4.66,1.72,5.22,6.56,4.55,1.7-.23,3.35-.86,5-1.24,1.34-.29,1.58-1.07,1.24-2.27a21.9,21.9,0,0,0-3.85-8C94.22,41.38,91.49,41.07,87.77,43.82Zm-56.26-29c2.18-4,1.87-5.46-1.51-7.89-2.75-2-5.94-2.69-9.21-3.12-1-.13-1.77-.12-2,1.2a19.18,19.18,0,0,0,.57,10.3c.3.83.66,1.59,1.71,1.33a22.65,22.65,0,0,1,6.71-.19,9,9,0,0,0-3.15-3.84c-.91-.77-1.33-1.7-.61-2.67.86-1.16,1.95-.79,3,0A24.84,24.84,0,0,1,31.51,14.82ZM27.27,83.44A9.75,9.75,0,0,0,21.7,84.8c-2.27,1.38-2.25,3,0,4.46,2.86,1.87,8.35,1.83,11.12-.08,2.1-1.44,2.14-2.9,0-4.28A9.57,9.57,0,0,0,27.27,83.44ZM79,50.84c1.68-2.61.83-4.66-.79-6.33A8.33,8.33,0,0,0,69.28,42a4.44,4.44,0,0,0-3.44,4.18C71.89,44,75.79,45.33,79,50.84ZM44.11,47.25a4.76,4.76,0,0,0-3.18-4.83,8.57,8.57,0,0,0-9.22,1.43,4.45,4.45,0,0,0-1.5,5.45C35.5,44.52,37.79,44.18,44.11,47.25ZM73.53,21.37c6-2.79,10.09-.66,13.16,4.43,1.48-4-.36-7.25-4.66-8.65S74.64,17.11,73.53,21.37ZM55.77,14c.79-2.9-.57-4.66-2.72-5.72a8.7,8.7,0,0,0-9,.45c-2,1.3-2.38,2.7-1.81,5.07C47.21,9.8,50.76,9.79,55.77,14ZM15,29.33c3.12-5.62,7.51-6.85,13.07-4.49-.9-4-4.07-5.44-8.39-4.16S13.4,25.32,15,29.33ZM35.62,82.41c-1.36-4.36-4.52-6.44-9.23-6.36-1.14,0-2.78-.68-2.78,1.64,0,2,1,2.3,2.69,2.12A13.72,13.72,0,0,1,35.62,82.41ZM23.4,27.29c-1.75.29-3.8.6-4.34,2.66-.35,1.35,1.25,1.48,2.18,1.38,1.85-.2,3.88-.6,4.32-2.75C25.79,27.44,24.42,27.42,23.4,27.29ZM37.09,52.66c1.52-.27,3.52-.4,3.78-2.3.17-1.24-1.53-1.42-2.65-1.39-1.68,0-3.69.3-4,2.1C33.94,52.69,35.83,52.42,37.09,52.66Zm43.4-24.82c.81-.2,2.22-.08,2-1.28C82,24.42,80,24,78.2,23.74c-1-.12-2.52,0-2.18,1.36C76.55,27.14,78.59,27.49,80.49,27.84Zm-10,20.9c-.91.15-2.34,0-2,1.26.59,2.2,2.61,2.62,4.63,2.65.79,0,2.05,0,1.82-1C74.38,49.35,72.41,48.91,70.45,48.74ZM48.84,14.88c-1.16.07-3.11-.68-3.32,1.36C45.34,18,47.15,18,48.43,18c1.51,0,3.62.2,3.73-1.71C52.27,14.56,50.32,14.87,48.84,14.88Z"/><path class="cls-2" d="M34.79,70.58c1.79,0,3,0,4.23,0,4.36-.2,4.74,0,5.69,4.45a33.85,33.85,0,0,1,.6,4.26c.12,1.26.45,2.35,1.95,2.19S49.07,80.2,49,79a22.22,22.22,0,0,0-1.8-8.07c-.84-1.69-.5-2.58,1.11-3.42,1.84-1,3.12-2.63,4.58-4.08.63-.62.84-2.8,2.16-1.52,1.08,1,3.23,2.35,1.54,4.64A19.68,19.68,0,0,0,52.7,78.24c0,1.29-.41,3,1.47,3.2s1.79-1.47,2-2.78a24.9,24.9,0,0,1,2.74-9.08c.94-1.67,1.93-2.25,3.66-1.12a9.1,9.1,0,0,0,2.26,1c1.45.46,2,1,1,2.61a26.55,26.55,0,0,0-4.31,12.38c-.09,1.25-.76,1.52-1.73,1.71a48.32,48.32,0,0,1-18.06.08c-.89-.15-1.79-.28-1.87-1.59C39.58,79.69,37.58,75.32,34.79,70.58Z"/><path class="cls-2" d="M57.5,104.75a62.53,62.53,0,0,1-13.47,0c2.06-2.41,3.93-4.37,4.5-7.06.25-1.16.75-2.62-.9-3.14s-2.15.74-2.55,2a11.33,11.33,0,0,1-4.3,5.86,3.67,3.67,0,0,1-2.86.86c-3.09-.53-3.58-1.58-1.8-4a17.11,17.11,0,0,0,3.08-7.65c.24-1.64.84-2,2.43-1.7a51.79,51.79,0,0,0,18.08.06c1.52-.26,2.17-.09,2.48,1.61.59,3.25,1.64,6.4,4,8.84,1,1.05.48,1.46-.51,2-2.85,1.54-5.24.87-7.56-2.41a20.27,20.27,0,0,1-2-4.12,1.83,1.83,0,0,0-2.41-1.28c-1.14.33-1.11,1.36-1,2.31C53.23,99.84,55,102.09,57.5,104.75Z"/><path class="cls-3" d="M75.73,66.25c-5.87,1.78-11,.3-15.33-3.83-3.49-3.34-5.17-7.42-3.79-12.31a10.33,10.33,0,0,1,5.93-7c-1.22,5.33.72,9.14,5,11.63s8.79,2.68,13.07-.3c1,.94.46,2,.34,3.12C80.6,61.29,77.81,63.55,75.73,66.25Z"/><path class="cls-3" d="M42.32,66.13C32.55,69.5,22.91,63,23.77,53.6a7,7,0,0,1,1.9-4.71c3.44,6.07,6.81,8,12.24,7.33,4.85-.64,8.45-3.64,9.49-7.9a12.67,12.67,0,0,1-2.26,14.77c-.68.73-1.61,1.31-1.52,2.5h0A1.19,1.19,0,0,0,42.32,66.13Z"/><path class="cls-3" d="M83.08,41.38c-1.2.65-2.14,0-3.12-.6a19.08,19.08,0,0,0-10.18-3.1,3.43,3.43,0,0,1-2.52-.85c-5.59-5.12-4.13-15.17,2.91-18.59-1.26,5.05.6,8.84,4.76,11.38s8.71,2.93,13.07,0c1.79,3.39-.42,5.89-2,8.51-.54.92-1.74,1.43-1.72,2.72l-.14.12H84Z"/><path class="cls-3" d="M32.44,38.85c-3.26,1.33-6.35,2.92-8.63,5.73a2.22,2.22,0,0,1-1.81,1,12.73,12.73,0,0,1-11.45-6.07,10.41,10.41,0,0,1-.18-10.86c3.38,5.81,6,7.25,11.32,6.37Q30.21,33.58,32,25.45c2.44,2.29,2.61,5.19,2.14,8.22-.24,1.61-1,3.12-.93,4.8v0Z"/><path class="cls-3" d="M54,31.5a12.33,12.33,0,0,1-7.81.85c-2.87-.51-5.24-1.19-5.6-4.85a8.9,8.9,0,0,0-3.76-6.19c-3.14-2.21-2.3-4.54-.84-7.09.4-.7.93-1.32,1.73-2.44.65,5.91,4,9,9.19,9.78,5.41.86,9.63-1.3,12.54-6A32.57,32.57,0,0,1,54,31.5Z"/><path class="cls-4" d="M16.93,48.84c-2.07,1.66-4.11,3.18-6,4.87-1.06.93-2.91,2-1.27,3.71s2.55-.07,3.56-1a31.18,31.18,0,0,1,6.44-4.67c1.47,6.57-.26,8.58-7.24,9.78-2.82.48-6.48.74-8.1-1.36-1.49-1.91.43-5.05,1.51-7.46a16.47,16.47,0,0,1,2.28-3.62C10.75,45.93,13.74,46.57,16.93,48.84Z"/><path class="cls-2" d="M63.32,37.88c0,.69-.49.86-1,1A15.27,15.27,0,0,0,55,44.85c-.83,1.28-1.37.7-2-.16a16.85,16.85,0,0,0-10.92-6.35c-1-.17-1.92-.21-1.54-1.64.3-1.15.81-1.84,2.16-1.43a20.07,20.07,0,0,0,16.62-1.94c.41-.25,1-.78,1.35-.26C61.65,34.63,62.46,36.29,63.32,37.88Z"/><path class="cls-4" d="M87.77,43.82c3.72-2.75,6.45-2.44,9.21.94a21.9,21.9,0,0,1,3.85,8c.34,1.2.1,2-1.24,2.27-1.68.38-3.33,1-5,1.24-4.84.67-5.54.11-6.56-4.55-.24-1.09-.67-2.13-1.06-3.35,1.53-.54,2.43.63,3.44,1.33s2.29,1.81,3.42.25-.33-2.45-1.36-3.2C91.05,45.72,89.52,44.9,87.77,43.82Z"/><path class="cls-4" d="M31.51,14.82A24.84,24.84,0,0,0,27,9.89c-1-.74-2.11-1.11-3,0-.72,1-.3,1.9.61,2.67a9,9,0,0,1,3.15,3.84,22.65,22.65,0,0,0-6.71.19c-1,.26-1.41-.5-1.71-1.33A19.18,19.18,0,0,1,18.78,5c.24-1.32,1-1.33,2-1.2C24.06,4.24,27.25,5,30,6.93,33.38,9.36,33.69,10.87,31.51,14.82Z"/><path class="cls-5" d="M43.62,65.59c-.09-1.19.84-1.77,1.52-2.5A12.67,12.67,0,0,0,47.4,48.32c0-1-.77-2.52.5-3s1.84,1.05,2.47,1.92C55,53.82,51.65,63,43.62,65.59Z"/><path class="cls-5" d="M54,31.5a32.57,32.57,0,0,0,5.45-15.9c.11-1.12.22-2.24.34-3.39,3.26,2.52,3.88,5.42,2.1,8.94a11.17,11.17,0,0,0-1.44,4C60.19,29.31,57.31,30.55,54,31.5Z"/><path class="cls-5" d="M79,50.84c-3.2-5.51-7.1-6.86-13.15-4.63A4.44,4.44,0,0,1,69.28,42a8.33,8.33,0,0,1,8.92,2.48C79.82,46.18,80.67,48.23,79,50.84Z"/><path class="cls-5" d="M44.11,47.25c-6.32-3.07-8.61-2.73-13.9,2a4.45,4.45,0,0,1,1.5-5.45,8.57,8.57,0,0,1,9.22-1.43A4.76,4.76,0,0,1,44.11,47.25Z"/><path class="cls-5" d="M73.53,21.37c1.11-4.26,4.17-5.63,8.5-4.22s6.14,4.61,4.66,8.65C83.62,20.71,79.54,18.58,73.53,21.37Z"/><path class="cls-5" d="M55.77,14c-5-4.2-8.56-4.19-13.58-.2C41.62,11.42,42.05,10,44,8.72a8.7,8.7,0,0,1,9-.45C55.2,9.33,56.56,11.09,55.77,14Z"/><path class="cls-5" d="M33.16,38.47c-.11-1.68.69-3.19.93-4.8.47-3,.3-5.93-2.14-8.22-.05-1-.1-2-.16-3.07,5.41,2.27,7.83,11,4.44,15.17C35.37,38.6,34.25,38.4,33.16,38.47Z"/><path class="cls-5" d="M15,29.33c-1.57-4,.44-7.39,4.68-8.65s7.49.19,8.39,4.16C22.48,22.48,18.09,23.71,15,29.33Z"/><path class="cls-5" d="M75.73,66.25c2.08-2.7,4.87-5,5.25-8.71.12-1.1.68-2.18-.34-3.12a16.12,16.12,0,0,0,2.77-4.11C86.91,56.91,83.2,64.43,75.73,66.25Z"/><path class="cls-5" d="M84.33,40.89c0-1.29,1.18-1.8,1.72-2.72,1.53-2.62,3.74-5.12,2-8.51l3.15-4A10.78,10.78,0,0,1,84.33,40.89Z"/><path class="cls-3" d="M23.4,27.29c1,.13,2.39.15,2.16,1.29-.44,2.15-2.47,2.55-4.32,2.75-.93.1-2.53,0-2.18-1.38C19.6,27.89,21.65,27.58,23.4,27.29Z"/><path class="cls-3" d="M37.09,52.66c-1.26-.24-3.15,0-2.87-1.59.31-1.8,2.32-2.06,4-2.1,1.12,0,2.82.15,2.65,1.39C40.61,52.26,38.61,52.39,37.09,52.66Z"/><path class="cls-3" d="M80.49,27.84c-1.9-.35-3.94-.7-4.47-2.74-.34-1.32,1.23-1.48,2.18-1.36,1.84.23,3.83.68,4.27,2.82C82.71,27.76,81.3,27.64,80.49,27.84Z"/><path class="cls-3" d="M70.45,48.74c2,.17,3.93.61,4.44,2.86.23,1-1,1.07-1.82,1-2,0-4-.45-4.63-2.65C68.11,48.75,69.54,48.89,70.45,48.74Z"/><path class="cls-3" d="M48.84,14.88c1.48,0,3.43-.32,3.32,1.41C52.05,18.2,49.94,18,48.43,18c-1.28,0-3.09,0-2.91-1.76C45.73,14.2,47.68,15,48.84,14.88Z"/><path class="cls-5" d="M42.32,66.13a1.19,1.19,0,0,1,1.3-.55A1.16,1.16,0,0,1,42.32,66.13Z"/><path class="cls-5" d="M32.44,38.85l.72-.4Z"/><path class="cls-6" d="M31.23,72.34l.37.32-.39.07c0-.15.06-.29.1-.43Z"/><path class="cls-5" d="M83.08,41.38,84,41Z"/></svg>