<svg id="Layer_1" data-name="Layer 1" xmlns="http://www.w3.org/2000/svg" viewBox="0 0 106.06 106.31"><defs><style>.cls-1{fill:#0c0a07;}.cls-2{fill:#dfe1e2;}.cls-3{fill:#a47f50;}.cls-4{fill:#eca95f;}.cls-5{fill:#ea5e65;}.cls-6{fill:none;}.cls-7{fill:#e9ebec;}</style></defs><title>تطبيق الزهور577777</title><path class="cls-1" d="M101.38,92c-.44.1-.6-.07-.5-.5,0-1.9,0-3.8,0-5.69,0-1.06,0-2.11,0-3.18,0-3.66-.07-7.33-.11-11,0-.85-.07-1.66.76-2.25,2.39-1.7,2.73-4.32,3-7a9.13,9.13,0,0,1,0-3.79l-.36-16.35c-.15-.48-.3-1-.44-1.44A9.7,9.7,0,0,0,98,36h0l-25-.41a7.32,7.32,0,0,1-1.62,0h0c-.33-.05-.66-.11-1-.19-.48.07-1,.12-1.45.15a42.94,42.94,0,0,1-6.74-.11l.07,0c3-2.46,4.86-4.84,5-8.21,0-1.11.71-1,1.51-.91,3.74.38,6.66-1.34,9.4-3.66,2.1-1.78,2.36-4,0-5.09-4.09-2-2.89-4.15-1-6.74a7.32,7.32,0,0,0,.64-1.42l-.6-1.58c-1.33-.27-2.71-.88-4-.73-2.41.29-3-.39-3.1-2.87-.19-4.12-2-5-5.91-3.45C61.47,1.87,59,3.47,57.73,6.34c-.51,1.1-.92,1.59-2.27,1-3-1.37-6-.88-8.84.47-6,2.86-9.8,7.79-12.23,13.83-2,4.85-1.8,9.54,1.89,13.81H14.78a10.36,10.36,0,0,1-4.4,0q-7.53,1.22-8.82,8.72a13.12,13.12,0,0,1,0,4.42q0,8.24.1,16.45c.58.5.46,1.21.59,1.85.76,1.76,3.2,2.35,3.09,4.76-.16,3.25-.12,6.5-.16,9.74,0,.87,0,1.74,0,2.61v7.58c.11.43,0,.6-.5.5-4.79.3-4.73.3-4.67,5.08a13.14,13.14,0,0,0,1.56,5.68l2,2a12.73,12.73,0,0,0,5.7,1.56q43.86,0,87.72,0c5.51,0,8.94-3.59,9.08-9.12C106.15,92.34,106.15,92.34,101.38,92Zm-35-88a4.12,4.12,0,0,1,.18,2.43,5.91,5.91,0,0,1-.48,1.31,10.09,10.09,0,0,1-.75,1.25c-.51.74-.86,1.49-.25,2.31l.15.19a2,2,0,0,0,.33.28,2.12,2.12,0,0,0,2.06,0l.48-.2,1-.39c.33-.12.65-.24,1-.33a5.55,5.55,0,0,1,2.9-.06h0a5.42,5.42,0,0,1-.32.69,7.07,7.07,0,0,1-.8,1.19A14.31,14.31,0,0,1,69.23,15c-.78.56-1.71,1.08-1.23,2.22a1.58,1.58,0,0,0,.61.73,1.68,1.68,0,0,0,.33.16l.34.1.21,0a4.37,4.37,0,0,0,.63,0l.94,0H72l.32,0,.31,0a1.24,1.24,0,0,1,.27,0H73a4.1,4.1,0,0,1,.82.17h0a2.87,2.87,0,0,1,.47.17,1.35,1.35,0,0,1,.85,1.08c.18,1.73-2.16,2.3-3.75,2.69a4.83,4.83,0,0,1-6-2.76c-1-2-2-3.94-3.1-5.81C59.27,8.92,60.6,5.61,66.39,4.06ZM39,20.07a20.59,20.59,0,0,1,9-9c3.61-1.74,6.48-1.25,9.09,1.77a32.07,32.07,0,0,1,6.11,10.61c1.41,4.09.15,7.09-3.64,9.35C56,34.88,52.08,35.44,48,35.48,37.62,35.41,34,29.19,39,20.07ZM5.4,44.28a4.83,4.83,0,0,1,1.35-3.45,4.14,4.14,0,0,1,.38-.35,7.3,7.3,0,0,1,4.58-1.32q20.68,0,41.38,0h0v0c13.59,0,27.16,0,40.75,0,5.14,0,6.81,1.72,6.83,6.83,0,3.44,0,6.87,0,10.32q0,3,0,6.11a10,10,0,0,1-.12,1.61,6.1,6.1,0,0,1-.36,1.31,2.85,2.85,0,0,1-3.1,2c-2.85-.26-3.47-2.24-3.37-4.74.09-2.21,0-4.43,0-6.64a9.71,9.71,0,0,0-.11-1.35,6,6,0,0,0-1.71-3.51,5.05,5.05,0,0,0-3.46-1.31,5.38,5.38,0,0,0-2.73.65,4.5,4.5,0,0,0-.83.6,6.31,6.31,0,0,0-1.84,4.77Q83,62.9,83.06,70c0,2.41-.75,4.32-3.41,4.37a3.64,3.64,0,0,1-2.12-.51,2.34,2.34,0,0,1-.53-.46,5.19,5.19,0,0,1-.92-3.52c0-3.58,0-7.16,0-10.74a6.94,6.94,0,0,0-.66-2.89,6.67,6.67,0,0,0-.56-.94c-.11-.14-.22-.28-.34-.41a4.31,4.31,0,0,0-.37-.37,4.88,4.88,0,0,0-3.35-1.3c-3,0-5.35,2.37-5.4,5.79-.07,5.9,0,11.8,0,17.69,0,2.47-.52,4.49-3.41,4.72a2.82,2.82,0,0,1-2.54-.94,3.4,3.4,0,0,1-.57-1,6.36,6.36,0,0,1-.35-1.29c0-.33-.09-.67-.11-1,0-.18,0-.37,0-.57,0-2,0-4.07,0-6.1,0-4.81,0-9.62,0-14.43a9.22,9.22,0,0,0-.1-1.42A7.77,7.77,0,0,0,58,53.42a5.51,5.51,0,0,0-1.05-2,3.34,3.34,0,0,0-.37-.38A5,5,0,0,0,53,49.77a6,6,0,0,0-1.15.13,4.85,4.85,0,0,0-1,.32c-1.92.85-3.05,2.85-3.09,5.74,0,3.57,0,7.16,0,10.74a6,6,0,0,1-.3,2,2,2,0,0,1-.13.34,2.93,2.93,0,0,1-.58.84,2.68,2.68,0,0,1-1.19.7,4.31,4.31,0,0,1-1.45.17A3,3,0,0,1,41.1,69a2,2,0,0,1-.1-.26,5.45,5.45,0,0,1-.28-2c0-1,0-2.07,0-3.12v-.2c0-.37,0-.74,0-1.11,0-.18,0-.36,0-.53a5.35,5.35,0,0,0-5.32-4.94c-2.89,0-5.19,2.25-5.29,5.52C30,64.63,30,67,30,69.27c0,1.27,0,2.53,0,3.79a7.4,7.4,0,0,1-.63,3.31,2.83,2.83,0,0,1-3,1.51,4,4,0,0,1-1.75-.45,3,3,0,0,1-.59-.44c-.88-.86-1.06-2.25-1-3.81,0-5.68,0-11.37,0-17.06,0-4-2.07-6.4-5.39-6.37s-5.31,2.44-5.33,6.45c0,2.53,0,5.06,0,7.58,0,2.3-1.37,3.6-3.56,3.56a3.22,3.22,0,0,1-3.35-3.47C5.32,57.34,5.25,50.81,5.4,44.28Zm97.11,53.25c-.36,2.94-1.75,4.88-4.93,5.1l-11.36,0-4.44,0H66l-3.87,0-15.73,0-4.5,0H26.18l-3.86,0a125.38,125.38,0,0,1-14,0,4.85,4.85,0,0,1-3.9-2.25,3.94,3.94,0,0,1-.87-4.06c.56-1.17,2.09-.51,3.17-.51,6.68,0,13.37.07,20.06.13v0h6.47a127.4,127.4,0,0,1,13.11,0l.65,0,.23,0H53c4.46-.22,8.94-.22,13.41,0l.81,0h.64l.21,0c1.09-.25,2.43-.15,2.45-1.88-.26-2.48-2.16-1.85-3.62-1.85-18.21,0-36.42-.09-54.63,0-2.73,0-3.62-.56-3.47-3.4.26-5,.11-10.11.06-15.16,0-1.6.12-2.56,2.08-3.13,3.22-.93,4.91-3.47,5-6.9.06-2.63,0-5.26,0-7.89,0-1.15.22-2.21,1.59-2.28,1.6-.1,1.81,1.08,1.81,2.34,0,5.79,0,11.58,0,17.37,0,5.11,2.75,8.34,7,8.38,4.45,0,7.25-3.19,7.28-8.44,0-3.37,0-6.73,0-10.1,0-1.22.07-2.48,1.67-2.5s1.72,1.23,1.73,2.45-.05,2.75,0,4.11c.16,4.3,3.07,7.36,7,7.42s7.11-3,7.23-7.52c.09-3.58,0-7.16,0-10.74,0-1.28-.1-2.79,1.72-2.75s1.65,1.56,1.65,2.83c0,6.84,0,13.69,0,20.53,0,5,3,8.34,7.12,8.33S69,81.8,69,76.87c0-5.58,0-11.16,0-16.74,0-1.32-.33-3.1,1.65-3.17s1.73,1.71,1.73,3c0,3.37,0,6.74,0,10.11,0,4.68,3,8,7.14,8s7.06-3.3,7.12-8c0-4.53,0-9.05,0-13.58,0-1.32-.32-3,1.75-3,1.81,0,1.6,1.61,1.61,2.86,0,2.42,0,4.85,0,7.26.11,3.53,1.79,6.07,5.21,7.08,1.37.4,1.87.92,1.85,2.34-.08,5.68-.12,11.37,0,17,0,1.71-.58,2.15-2.19,2.1-3-.1-6.1,0-9.15,0-1.43,0-2.49.32-2.83,1.86.81,2,2,2.22,4.25,2,4.57-.52,9.22-.12,13.84-.18C102.4,95.77,102.65,96.41,102.51,97.53Z"/><path class="cls-2" d="M5.19,91.53c.1.44-.06.61-.5.51Z"/><path class="cls-3" d="M53.1,39.17c13.58,0,27.17,0,40.75,0,5.14,0,6.81,1.71,6.83,6.82q0,8.22,0,16.43c0,3.28-1.3,5.09-3.58,4.88-2.85-.26-3.48-2.23-3.38-4.74.09-2.21,0-4.42,0-6.63-.05-3.77-2.08-6.13-5.29-6.17s-5.36,2.27-5.4,6c0,4.74,0,9.48,0,14.22,0,2.41-.74,4.32-3.4,4.37-2.89.06-3.62-1.95-3.58-4.49q.09-5.37,0-10.74c-.07-3.45-2.31-5.9-5.28-5.91S65.43,55.61,65.39,59c-.08,5.89,0,11.79,0,17.69,0,2.47-.51,4.49-3.41,4.72-2.34.18-3.57-1.52-3.58-4.81,0-6.85,0-13.69,0-20.54,0-4-2.08-6.38-5.42-6.32S47.75,52.11,47.7,56c-.05,3.58,0,7.16,0,10.74,0,2.49-1,4.18-3.64,4.1-2.52-.08-3.37-1.78-3.33-4.1,0-1.47.05-2.95,0-4.42a5.41,5.41,0,0,0-5.37-5.47c-2.89,0-5.19,2.24-5.29,5.51-.11,3.58,0,7.16,0,10.74,0,3.38-1.16,5-3.58,4.82-3-.18-3.42-2.24-3.4-4.69,0-5.69,0-11.37,0-17.06,0-4-2.07-6.4-5.39-6.37s-5.31,2.43-5.33,6.45c0,2.52,0,5,0,7.58,0,2.29-1.36,3.6-3.56,3.56a3.22,3.22,0,0,1-3.35-3.47c-.06-6.53-.13-13.06,0-19.59.08-3.32,2.45-5.12,6.31-5.13q20.68,0,41.39,0Z"/><path class="cls-4" d="M97.14,90.05c0,1.72-.59,2.15-2.2,2.1-3-.09-6.09,0-9.15,0-1.42,0-2.49.32-2.83,1.86l-3.25,0c-1.87-2.61-3.92-2.59-5.67,0l-3.49,0c-.25-2.47-2.16-1.84-3.62-1.84-18.2,0-36.42-.09-54.63,0-2.73,0-3.61-.55-3.47-3.4.26-5,.12-10.1.06-15.15,0-1.61.12-2.56,2.08-3.13,3.22-.94,4.91-3.48,5-6.9.06-2.63,0-5.26,0-7.9,0-1.15.21-2.2,1.58-2.28,1.61-.09,1.82,1.09,1.82,2.35,0,5.79,0,11.58,0,17.37,0,5.11,2.75,8.34,7,8.38,4.46,0,7.26-3.2,7.29-8.44,0-3.37,0-6.74,0-10.1,0-1.22.06-2.48,1.66-2.5s1.72,1.22,1.73,2.45-.05,2.74,0,4.11c.15,4.29,3.07,7.35,7,7.42s7.1-3,7.22-7.52c.1-3.58,0-7.16,0-10.74,0-1.28-.11-2.8,1.71-2.76S54.72,55,54.72,56.3c0,6.85,0,13.69,0,20.53,0,5,2.94,8.34,7.11,8.33S69,81.79,69,76.86c0-5.58,0-11.16,0-16.73C69,58.81,68.7,57,70.67,57s1.73,1.71,1.74,3c0,3.37,0,6.74,0,10.11.06,4.68,3,8,7.15,8s7.06-3.29,7.11-8c.06-4.53,0-9.05,0-13.58,0-1.32-.32-3.06,1.76-3,1.8,0,1.6,1.61,1.6,2.86,0,2.42,0,4.85,0,7.26.11,3.53,1.79,6.06,5.21,7.07,1.37.41,1.87.93,1.85,2.34C97.09,78.68,97.06,84.37,97.14,90.05Z"/><path class="cls-5" d="M63.21,23.42A32.07,32.07,0,0,0,57.1,12.81C54.49,9.79,51.62,9.3,48,11a20.59,20.59,0,0,0-9,9c-5.07,9.12-1.4,15.34,9,15.41,4,0,8-.6,11.54-2.71C63.36,30.51,64.62,27.51,63.21,23.42Zm-19.61,6A1.65,1.65,0,0,1,42,27.71c0-1.13.75-1.59,1.58-1.85,1.23.2,1.93.82,1.87,1.89A1.64,1.64,0,0,1,43.6,29.38Zm3.66-8.12a1.57,1.57,0,0,1-1.71-1.48,1.65,1.65,0,0,1,1.53-2A1.71,1.71,0,0,1,49,19.25C48.92,20.52,48.35,21.2,47.26,21.26Zm5.13,9.09a1.53,1.53,0,0,1-1.55-1.63c0-1.12.74-1.65,1.83-1.69a1.67,1.67,0,1,1-.28,3.32Zm4.85-8.54a1.86,1.86,0,0,1-.85.43l-.35.07A2.37,2.37,0,0,1,55,22a1.69,1.69,0,0,1-.25-.2,1.56,1.56,0,0,1-.45-1.31,1.75,1.75,0,0,1,.46-1.1,1.47,1.47,0,0,1,.8-.44,2,2,0,0,1,.35,0,1.61,1.61,0,0,1,1.81,1.67A1.51,1.51,0,0,1,57.24,21.81Z"/><path class="cls-3" d="M73,10.87A9.53,9.53,0,0,1,69.23,15c-.78.57-1.7,1.08-1.23,2.22a2,2,0,0,0,2.12,1.05c.31,0,.63,0,.94,0,1.62,0,4,.08,4.1,1.51.18,1.74-2.16,2.31-3.74,2.69a4.84,4.84,0,0,1-6-2.75c-1-2-1.95-4-3.1-5.82-3-5-1.71-8.28,4.08-9.84.71,1.9,0,3.49-1,5-.51.74-.85,1.49-.25,2.31a1.93,1.93,0,0,0,2.55.48C69.27,11.18,70.87,10.35,73,10.87Z"/><path class="cls-6" d="M67.89,96l-.63,0"/><path class="cls-1" d="M43.62,25.86c1.23.19,1.93.82,1.88,1.88a1.73,1.73,0,0,1-3.46,0A1.85,1.85,0,0,1,43.62,25.86Z"/><path class="cls-1" d="M49,19.25c-.06,1.26-.64,1.95-1.72,2a1.57,1.57,0,0,1-1.72-1.47,1.66,1.66,0,0,1,1.53-2A1.72,1.72,0,0,1,49,19.25Z"/><path class="cls-1" d="M56.05,22.31c-1.15-.14-1.81-.8-1.74-1.85a1.71,1.71,0,0,1,3.42.08C57.77,21.66,57,22.16,56.05,22.31Z"/><path class="cls-1" d="M52.67,27a1.55,1.55,0,0,1,1.54,1.66,1.68,1.68,0,0,1-3.36,0C50.86,27.6,51.58,27.07,52.67,27Z"/><circle class="cls-1" cx="76.82" cy="94.38" r="2.81"/><path class="cls-1" d="M71.41,35.59l-2.44,0c.48,0,1-.08,1.45-.15C70.75,35.48,71.08,35.54,71.41,35.59Z"/><path class="cls-7" d="M46.39,95.91h.87a.66.66,0,0,0-.23,0C46.82,95.92,46.6,95.91,46.39,95.91Z"/><path class="cls-7" d="M68.1,95.91l-.21,0-.63,0-.82,0Z"/></svg>