<svg id="Layer_1" data-name="Layer 1" xmlns="http://www.w3.org/2000/svg" viewBox="0 0 48.55 46.81"><defs><style>.cls-1{fill:#970863;}</style></defs><title>تطبيق الزهور577777</title><path class="cls-1" d="M46.86,39.69a.13.13,0,0,0-.06.14.09.09,0,0,0-.06.11s0,0,0,.05-.05,0,0,.08h0a.05.05,0,0,0,0,.07.16.16,0,0,0-.09.15.09.09,0,0,0-.06.11.07.07,0,0,0-.06.09s0,0,0,.08h0a.16.16,0,0,0-.11.15.2.2,0,0,0-.09.15.34.34,0,0,0-.15.23h0a.13.13,0,0,0-.08.11s0,0,0,.06a.05.05,0,0,0,0,.07h0s-.06,0-.05.08,0,0,0,0a.06.06,0,0,0-.06.06h0a.07.07,0,0,0-.06.07s-.06,0,0,.07,0,0,0,.06l0,0s-.05,0-.05,0a2.61,2.61,0,0,0-.37.44s0,0,0,.06a1.18,1.18,0,0,0-.25.25s0,0,0,0a3.07,3.07,0,0,0-.54.54s-.05,0-.06,0a.67.67,0,0,0-.28.25c-.07,0-.11,0-.14.12a.1.1,0,0,0-.1.09.1.1,0,0,0-.11.07s-.06,0-.06,0a.12.12,0,0,0-.11.08,1.8,1.8,0,0,0-.39.29.91.91,0,0,0-.36.24h0a.18.18,0,0,0-.16.1s0,0-.05,0a.19.19,0,0,0-.16.1s0,0,0,0a.06.06,0,0,0-.07,0c-.42.23-.85.44-1.29.64a3.16,3.16,0,0,0-.5.22s0,0-.05,0h-.08c-.28.09-.55.2-.84.28a9.76,9.76,0,0,1-1.18.31.77.77,0,0,0-.31.11.06.06,0,0,0-.08,0,1,1,0,0,0-.54.11.08.08,0,0,0-.09,0,1.72,1.72,0,0,0-.74.12.24.24,0,0,0-.22,0,5,5,0,0,0-.94.08s0,0-.05,0a1,1,0,0,0-.46,0,.49.49,0,0,0-.17,0l-1.9.06a.19.19,0,0,0-.17.06,6,6,0,0,0-1.12,0h-.11c-1.14,0-2.28,0-3.42,0-2.63,0-5.26,0-7.89,0-.83,0-1.66,0-2.49,0a1.09,1.09,0,0,0-.31,0l-.07,0c-.37,0-.73,0-1.09,0a.14.14,0,0,0-.13-.06,7.79,7.79,0,0,1-1,0c-.2,0-.4,0-.6,0a2.09,2.09,0,0,0-.5,0,1.2,1.2,0,0,0-.5,0,.13.13,0,0,0-.11-.05,3,3,0,0,0-.41,0,1.57,1.57,0,0,0-.43,0,.28.28,0,0,0-.22,0,1.89,1.89,0,0,0-.74-.12.1.1,0,0,0-.09,0,1.16,1.16,0,0,0-.58-.11.08.08,0,0,0-.09,0,1.33,1.33,0,0,0-.4-.12C10,46.07,9.77,46,9.54,46s-.67-.21-1-.33-.78-.31-1.16-.48a3.76,3.76,0,0,0-.62-.27h0c-.09-.13-.24-.16-.37-.24a2.39,2.39,0,0,0-.49-.28h0a.29.29,0,0,0-.11-.11,7,7,0,0,1-.62-.45,2.34,2.34,0,0,0-.41-.29h0a1.18,1.18,0,0,0-.41-.36A.17.17,0,0,0,4.24,43a14.51,14.51,0,0,1-1.4-1.53l0,0a.36.36,0,0,0-.16-.24A.44.44,0,0,0,2.47,41c0-.06,0-.09-.08-.09a.54.54,0,0,0-.17-.29.11.11,0,0,0-.07-.11c0-.05,0-.08,0-.09a.61.61,0,0,0-.19-.32A.13.13,0,0,0,1.85,40a.33.33,0,0,0-.11-.2s0,0,0-.05,0-.09-.08-.08h0v0a.09.09,0,0,0,0-.12A.83.83,0,0,0,1.37,39a0,0,0,0,0,0,0h0c0-.05,0-.06-.05-.07h0c0-.11,0-.13-.11-.33a.15.15,0,0,0-.08-.17.06.06,0,0,0,0-.09.08.08,0,0,0,0-.08C1.1,38.12,1,38,1,38a.1.1,0,0,0,0-.09.25.25,0,0,0-.1-.25.11.11,0,0,0,0-.12.4.4,0,0,0-.11-.33.05.05,0,0,0,0-.08.09.09,0,0,0,0-.13.06.06,0,0,0,0-.08.12.12,0,0,0,0-.1,8.49,8.49,0,0,1-.24-1.22,1.05,1.05,0,0,0-.11-.43.26.26,0,0,0,0-.21.14.14,0,0,0,0-.06c0-.26,0-.53-.08-.79,0,0,0-.05-.05-.07a.45.45,0,0,0,0-.28,1.13,1.13,0,0,0,0-.41,7,7,0,0,0,0-1c0-.35,0-.7-.06-1.05s0-.79,0-1.18C0,29,0,27.93,0,26.87c0-2.51,0-5,0-7.53,0-.67,0-1.35,0-2,0-.22,0-.45,0-.67,0-.73,0-1.46.1-2.19,0-.23,0-.46,0-.68a14.59,14.59,0,0,1,.16-1.88A15.44,15.44,0,0,1,.67,10a13.52,13.52,0,0,1,.47-1.53,13,13,0,0,1,.73-1.62A11.55,11.55,0,0,1,3.38,4.67a11.42,11.42,0,0,1,1.1-1.1,13.92,13.92,0,0,1,1.43-1.1,10.84,10.84,0,0,1,1.57-.85,10.58,10.58,0,0,1,1-.4c.31-.12.63-.22,1-.32s.85-.23,1.29-.33.69-.12,1-.18C12.3.29,12.86.27,13.42.2s1.27,0,1.9-.1c.29,0,.59,0,.89,0s.76,0,1.14,0c1.11,0,2.22,0,3.33,0,2.6,0,5.21,0,7.81,0,1,0,2,0,3.05,0,.67,0,1.33,0,2,.08s1.29,0,1.93.09c.34,0,.68.06,1,.11.6.09,1.2.18,1.8.33.39.09.78.19,1.16.31s.83.29,1.24.46a12.17,12.17,0,0,1,1.45.71A11.46,11.46,0,0,1,44.33,3.8,12.5,12.5,0,0,1,45.9,5.56a11.35,11.35,0,0,1,1,1.71A15.15,15.15,0,0,1,47.62,9a12.63,12.63,0,0,1,.46,1.81,10.52,10.52,0,0,1,.2,1.37c0,.34.08.67.1,1s0,.39,0,.58c0,.6.07,1.19.1,1.78,0,.38,0,.75,0,1.13,0,1.08,0,2.16,0,3.24,0,2.66,0,5.32,0,8,0,.63,0,1.26,0,1.89,0,.12,0,.23,0,.35-.05.5,0,1-.06,1.51s-.06.82-.07,1.23c0,.22,0,.44,0,.66s-.07.67-.1,1A13.94,13.94,0,0,1,48,36.27a.33.33,0,0,0,0,.22.09.09,0,0,0,0,.09,3.19,3.19,0,0,0-.23.87.05.05,0,0,0,0,.08,2.24,2.24,0,0,0-.24.67.24.24,0,0,0-.05.2c-.06,0-.09.07-.07.13a.18.18,0,0,0,0,.17.15.15,0,0,0-.08.16s0,0,0,.06a.13.13,0,0,0,0,.15c-.06,0-.11.09-.08.17s-.05,0,0,.08h0A.63.63,0,0,0,46.86,39.69Zm-4.31-1.31h0a.94.94,0,0,0,.25-.47h0a1.11,1.11,0,0,0,.19-.36.06.06,0,0,0,0-.08.48.48,0,0,0,.13-.3.08.08,0,0,0,0-.08.27.27,0,0,0,.11-.25.21.21,0,0,0,0-.15.21.21,0,0,0,.09-.23.28.28,0,0,0,0-.2.19.19,0,0,0,.07-.21s0,0,0-.06,0,0,0-.06a.11.11,0,0,0,0-.13.31.31,0,0,0,.08-.29s0,0,0-.06a.13.13,0,0,0,0-.15.06.06,0,0,0,0-.08l0,0a3.22,3.22,0,0,0,.11-.92.15.15,0,0,0,0-.2c.06,0,.07-.08,0-.13a1.2,1.2,0,0,0,0-.38c0-.22,0-.45,0-.67a1.15,1.15,0,0,0,0-.37s0,0,0-.07,0-.1,0-.15q0-.33,0-.66a3.05,3.05,0,0,0,0-.74.15.15,0,0,0,0-.16,0,0,0,0,0,0,0,.25.25,0,0,0,0-.12c0-.52,0-1,0-1.55s0-1,0-1.51a.42.42,0,0,0,0-.22c0-.08,0-.18,0-.26,0-3.33,0-6.65,0-10,0-.32,0-.64,0-1s0-.85-.05-1.28,0-.69-.06-1c0-.19,0-.38,0-.58s-.07-.52-.09-.78a10,10,0,0,0-.34-1.71,9.41,9.41,0,0,0-.61-1.6,6.54,6.54,0,0,0-.76-1.24,8.14,8.14,0,0,0-2.25-2,7.49,7.49,0,0,0-1.31-.62A6.81,6.81,0,0,0,37.84,5q-.65-.18-1.29-.3c-.48-.1-1-.14-1.44-.2-.8-.08-1.6-.06-2.4-.13-.31,0-.61,0-.92,0-.58,0-1.16,0-1.74,0H20.11c-1.1,0-2.2,0-3.3,0h-.13l-1.47.07-1,0c-.46,0-.91.07-1.36.12a12.13,12.13,0,0,0-1.8.33c-.35.09-.69.2-1,.32a8.66,8.66,0,0,0-1.28.58A8.09,8.09,0,0,0,6.05,8.34a6.72,6.72,0,0,0-.57,1.1,9.65,9.65,0,0,0-.38,1,9.93,9.93,0,0,0-.28,1.17,14.37,14.37,0,0,0-.24,2c0,.23,0,.47,0,.7s0,.66-.07,1,0,.61,0,.92c0,.53,0,1.06,0,1.6,0,2.6,0,5.21,0,7.81,0,.07,0,.14,0,.2a.23.23,0,0,0,0,.16v2.86a.23.23,0,0,0,0,.16s0,.06,0,.09a.15.15,0,0,0,0,.18.05.05,0,0,0,0,0c0,.45,0,.9,0,1.35,0,.06,0,.13,0,.17a5.36,5.36,0,0,0,0,.8.14.14,0,0,0,.06.13,2.28,2.28,0,0,0,0,.64.1.1,0,0,0,.05.08,1.85,1.85,0,0,0,0,.62,1,1,0,0,0,0,.52h0a1.43,1.43,0,0,0,0,.58.84.84,0,0,0,.08.38.14.14,0,0,0,0,.16,1.18,1.18,0,0,0,.11.55.14.14,0,0,0,0,.15.12.12,0,0,0,0,.08c0,.23.11.46.17.68,0,0,0,.1.07.12a.08.08,0,0,0,0,.08.08.08,0,0,0,0,.12s0,0,0,0,0,.07,0,.09a.14.14,0,0,0,0,.12s0,.05,0,.06h0a.14.14,0,0,0,.08.17.07.07,0,0,0,0,.08s0,.05,0,.06h0a.81.81,0,0,0,.14.33s0,0,0,0a1.59,1.59,0,0,0,.28.53h0c0,.11.06.22.17.28H6c0,.06,0,.1.07.11v0c0,.05,0,.09.08.11a1.47,1.47,0,0,0,.41.55.18.18,0,0,0,.13.15s0,.06,0,.09c.26.27.54.54.83.8a.21.21,0,0,0,.15.09.09.09,0,0,0,.1.09,1,1,0,0,0,.35.26s0,.07.11.07a.13.13,0,0,0,.14.09.09.09,0,0,0,.11.07h0a.25.25,0,0,0,.2.12.68.68,0,0,0,.38.18.1.1,0,0,0,.12.07.1.1,0,0,0,.13.06.11.11,0,0,0,.12.06.25.25,0,0,0,.24.09.07.07,0,0,0,.09,0,.11.11,0,0,0,.14.05.15.15,0,0,0,.15.06.06.06,0,0,0,.09,0s0,0,.07,0h0a6.87,6.87,0,0,0,1.49.42.42.42,0,0,0,.27,0,.05.05,0,0,0,.08,0,.67.67,0,0,0,.46.08,0,0,0,0,0,.06,0s0,0,.05,0a.52.52,0,0,0,.3,0s0,0,.05,0a3.25,3.25,0,0,0,.7,0h0a.9.9,0,0,0,.43,0,2.51,2.51,0,0,0,.67,0c.06.07.14.05.21.05s.35,0,.51,0a5.93,5.93,0,0,0,1,0h0c.09.07.2,0,.3,0,.4,0,.81,0,1.21,0a.5.5,0,0,0,.27,0H30.12a.57.57,0,0,0,.29,0h1.34a.16.16,0,0,0,.13,0H32c.5,0,1,0,1.5,0,.06,0,.13,0,.17-.05h.43a.69.69,0,0,0,.32,0,.79.79,0,0,0,.43,0s0,0,.06,0a1,1,0,0,0,.63-.07.48.48,0,0,0,.29,0s0,0,.06,0a.07.07,0,0,0,.1,0,.94.94,0,0,0,.41,0c.3-.06.61-.11.91-.18s.7-.21,1.05-.31a.17.17,0,0,0,.13-.09.06.06,0,0,0,.08,0,.24.24,0,0,0,.25-.1.07.07,0,0,0,.08,0,1.74,1.74,0,0,0,.62-.28s0,0,0,0a2.21,2.21,0,0,0,.75-.45.12.12,0,0,0,.13-.08.12.12,0,0,0,.11-.08s0,0,0,0,.11,0,.14-.1a.09.09,0,0,0,.1-.09.28.28,0,0,0,.21-.17.92.92,0,0,0,.33-.32,1.32,1.32,0,0,0,.47-.47.15.15,0,0,0,.11-.12,1.21,1.21,0,0,0,.38-.49h0A.77.77,0,0,0,42.55,38.38Z"/><path class="cls-1" d="M37.88,46.26a.77.77,0,0,1,.31-.11,9.76,9.76,0,0,0,1.18-.31c.29-.08.56-.19.84-.28h.08a.11.11,0,0,1-.1.11c-.24.07-.46.18-.7.25-.47.14-1,.28-1.43.38A.17.17,0,0,1,37.88,46.26Z"/><path class="cls-1" d="M40.34,45.52a3.16,3.16,0,0,1,.5-.22c.44-.2.87-.41,1.29-.64a.06.06,0,0,1,.07,0s0,.07,0,.09c-.2.09-.36.22-.56.31l-.65.3-.42.18A.2.2,0,0,1,40.34,45.52Z"/><path class="cls-1" d="M32.52,46.76a.19.19,0,0,1,.17-.06l1.9-.06a.49.49,0,0,1,.17,0,6.42,6.42,0,0,1-.75.1,10.79,10.79,0,0,1-1.27,0C32.66,46.8,32.58,46.82,32.52,46.76Z"/><path class="cls-1" d="M.31,35.12a1.05,1.05,0,0,1,.11.43,8.49,8.49,0,0,0,.24,1.22.12.12,0,0,1,0,.1.38.38,0,0,1-.15-.34.8.8,0,0,0-.06-.3.6.6,0,0,1-.07-.3,1.23,1.23,0,0,0-.09-.5A.29.29,0,0,1,.31,35.12Z"/><path class="cls-1" d="M47.75,37.45a3.19,3.19,0,0,1,.23-.87.14.14,0,0,1,0,.2,1.24,1.24,0,0,0-.11.42C47.88,37.29,47.87,37.41,47.75,37.45Z"/><path class="cls-1" d="M35.22,46.63s0,0,.05,0a5,5,0,0,1,.94-.08,2.26,2.26,0,0,1-.73.15C35.39,46.68,35.3,46.71,35.22,46.63Z"/><path class="cls-1" d="M.18,34s.05,0,.05.07c0,.26.05.53.08.79a.14.14,0,0,1,0,.06.31.31,0,0,1-.07-.2c0-.16-.06-.31-.08-.47A.28.28,0,0,1,.18,34Z"/><path class="cls-1" d="M36.43,46.51a1.72,1.72,0,0,1,.74-.12,1.77,1.77,0,0,1-.51.15C36.58,46.56,36.5,46.58,36.43,46.51Z"/><path class="cls-1" d="M47.49,38.2a2.24,2.24,0,0,1,.24-.67.09.09,0,0,1,0,.11,2.25,2.25,0,0,0-.14.44A.16.16,0,0,1,47.49,38.2Z"/><path class="cls-1" d="M37.26,46.38a1,1,0,0,1,.54-.11.89.89,0,0,1-.33.15A.19.19,0,0,1,37.26,46.38Z"/><path class="cls-1" d="M4.3,43.11a1.18,1.18,0,0,1,.41.36h0"/><path class="cls-1" d="M1.37,39a.83.83,0,0,1,.22.46h0A.63.63,0,0,1,1.37,39Z"/><path class="cls-1" d="M42.63,44.37a.91.91,0,0,1,.36-.24A.33.33,0,0,1,42.63,44.37Z"/><path class="cls-1" d="M46.86,39.69a.63.63,0,0,1,.19-.36A.36.36,0,0,1,46.86,39.69Z"/><path class="cls-1" d="M1.91,40.12a.61.61,0,0,1,.19.32A.32.32,0,0,1,1.91,40.12Z"/><path class="cls-1" d="M.72,37.16a.4.4,0,0,1,.11.33C.75,37.39.64,37.3.72,37.16Z"/><path class="cls-1" d="M1.2,38.58c.12.2.12.22.11.33A.27.27,0,0,1,1.2,38.58Z"/><path class="cls-1" d="M1,38c.05.09.13.17.11.29C1,38.17.9,38.09,1,38Z"/><path class="cls-1" d="M.85,37.61a.25.25,0,0,1,.1.25C.86,37.8.78,37.74.85,37.61Z"/><path class="cls-1" d="M2.63,41.24a.36.36,0,0,1,.16.24C2.66,41.46,2.64,41.35,2.63,41.24Z"/><path class="cls-1" d="M46,41.11a.34.34,0,0,1,.15-.23C46.19,41,46.16,41.09,46,41.11Z"/><path class="cls-1" d="M47.24,38.86a.15.15,0,0,1,.08-.16C47.38,38.79,47.33,38.84,47.24,38.86Z"/><path class="cls-1" d="M1.74,39.78a.33.33,0,0,1,.11.2C1.73,40,1.71,39.88,1.74,39.78Z"/><path class="cls-1" d="M47.37,38.53c0-.06,0-.1.07-.13S47.44,38.51,47.37,38.53Z"/><path class="cls-1" d="M42.46,44.48a.18.18,0,0,1,.16-.1C42.61,44.48,42.56,44.52,42.46,44.48Z"/><path class="cls-1" d="M42.25,44.61a.19.19,0,0,1,.16-.1C42.4,44.61,42.35,44.65,42.25,44.61Z"/><path class="cls-1" d="M46.27,40.73a.16.16,0,0,1,.11-.15C46.41,40.67,46.37,40.72,46.27,40.73Z"/><path class="cls-1" d="M43.76,43.55c0-.07.07-.12.14-.12S43.85,43.56,43.76,43.55Z"/><path class="cls-1" d="M.68,37a.09.09,0,0,1,0,.13C.62,37.05.62,37,.68,37Z"/><path class="cls-1" d="M47.17,39.07a.13.13,0,0,1,0-.15C47.24,39,47.25,39,47.17,39.07Z"/><path class="cls-1" d="M2.39,40.93s.08,0,.08.09S2.38,41,2.39,40.93Z"/><path class="cls-1" d="M43.55,43.71a.1.1,0,0,1,.11-.07C43.65,43.71,43.61,43.72,43.55,43.71Z"/><path class="cls-1" d="M43.38,43.84a.12.12,0,0,1,.11-.08C43.48,43.83,43.45,43.85,43.38,43.84Z"/><path class="cls-1" d="M45.94,41.23a.13.13,0,0,1,.08-.11A.08.08,0,0,1,45.94,41.23Z"/><path class="cls-1" d="M1.1,38.32a.06.06,0,0,1,0,.09C1.07,38.39,1,38.37,1.1,38.32Z"/><path class="cls-1" d="M1.64,39.65c.06,0,.09,0,.08.08S1.64,39.71,1.64,39.65Z"/><path class="cls-1" d="M46.74,39.94a.09.09,0,0,1,.06-.11C46.82,39.89,46.8,39.93,46.74,39.94Z"/><path class="cls-1" d="M46.49,40.4a.09.09,0,0,1,.06-.11C46.57,40.35,46.55,40.39,46.49,40.4Z"/><path class="cls-1" d="M2.15,40.53a.11.11,0,0,1,.07.11C2.15,40.64,2.13,40.59,2.15,40.53Z"/><path class="cls-1" d="M45.66,41.6a.07.07,0,0,1,.06-.07S45.7,41.6,45.66,41.6Z"/><path class="cls-1" d="M44.78,42.6s0-.05,0,0Z"/><path class="cls-1" d="M44.18,43.18s0,0,.06,0A.09.09,0,0,1,44.18,43.18Z"/><path class="cls-1" d="M45.72,41.52a.06.06,0,0,1,.06-.06A.09.09,0,0,1,45.72,41.52Z"/><path class="cls-1" d="M1.31,38.92s.06,0,.05.07A.12.12,0,0,1,1.31,38.92Z"/><path class="cls-1" d="M45.57,41.73s0,0,0-.06A.21.21,0,0,1,45.57,41.73Z"/><path class="cls-1" d="M45.48,41.81s0-.05.05,0Z"/><path class="cls-1" d="M46.67,40.07s0-.07,0-.08S46.7,40.05,46.67,40.07Z"/><path class="cls-1" d="M1.64,39.61v0s0,0,0,0Z"/><path class="cls-1" d="M45.07,42.31s0-.05,0-.06A.07.07,0,0,1,45.07,42.31Z"/><path class="cls-1" d="M46.64,40.14a.05.05,0,0,1,0-.07S46.67,40.13,46.64,40.14Z"/><path class="cls-1" d="M47.05,39.32s0-.06,0-.08A.08.08,0,0,1,47.05,39.32Z"/><path class="cls-1" d="M45.85,41.36a.05.05,0,0,1,0-.07A.08.08,0,0,1,45.85,41.36Z"/><path class="cls-1" d="M45.8,41.44s0-.06.05-.08A.08.08,0,0,1,45.8,41.44Z"/><path class="cls-1" d="M46.39,40.57s0-.07,0-.08A.08.08,0,0,1,46.39,40.57Z"/><path class="cls-1" d="M36,42.24a.46.46,0,0,1,.32-.13l.18,0a3.56,3.56,0,0,0,.8-.17,2.41,2.41,0,0,0,.65-.18c.15-.07.33-.05.47-.16s.06,0,.08,0a.17.17,0,0,1-.13.09c-.35.1-.69.22-1.05.31s-.61.12-.91.18A.94.94,0,0,1,36,42.24Z"/><path class="cls-1" d="M31.9,42.5a.19.19,0,0,1,.19-.1c.46,0,.91-.06,1.37,0,.07,0,.14,0,.19,0s-.11.05-.17.05c-.5,0-1,.06-1.5,0Z"/><path class="cls-1" d="M44,32.43c-.06-.06,0-.14,0-.21,0-.36.07-.71,0-1.07A1.09,1.09,0,0,1,44,31a.09.09,0,0,1,.07-.09,3.05,3.05,0,0,1,0,.74q0,.33,0,.66S44.06,32.39,44,32.43Z"/><path class="cls-1" d="M43.71,35.21a.35.35,0,0,1,0-.37,1.22,1.22,0,0,0,.09-.46c0-.06,0-.11.07-.13a3.22,3.22,0,0,1-.11.92Z"/><path class="cls-1" d="M4.62,33.63a.08.08,0,0,1,.08.07l.09.72a.18.18,0,0,1,0,.17.84.84,0,0,1-.08-.38A1.43,1.43,0,0,1,4.62,33.63Z"/><path class="cls-1" d="M39.55,41.16a.12.12,0,0,1,.06-.1c.2-.13.41-.24.61-.38,0,0,.06,0,.08,0A2.21,2.21,0,0,1,39.55,41.16Z"/><path class="cls-1" d="M44,33.54s0,0,0,0a5.9,5.9,0,0,1,0-.94s0-.06.07-.07a1.15,1.15,0,0,1,0,.37C44,33.09,44,33.32,44,33.54Z"/><path class="cls-1" d="M4.88,35.45c.13.06.13.2.15.3a2.13,2.13,0,0,0,.1.42s0,.11,0,.16-.06-.07-.07-.12c-.06-.22-.12-.45-.17-.68A.12.12,0,0,1,4.88,35.45Z"/><path class="cls-1" d="M4.46,29.26s0,.08,0,.13c0,.48,0,1,0,1.43-.06,0,0-.11,0-.17,0-.45,0-.9,0-1.35A.05.05,0,0,1,4.46,29.26Z"/><path class="cls-1" d="M30.41,42.51l.07,0c.47,0,.94,0,1.4,0a.16.16,0,0,1-.13,0H30.41Z"/><path class="cls-1" d="M4.54,31.75s.08,0,.08.08a2.9,2.9,0,0,1,0,.59l0,0a.1.1,0,0,1-.05-.08A2.28,2.28,0,0,1,4.54,31.75Z"/><path class="cls-1" d="M34.89,42.35s0,0,0,0c.2,0,.4-.15.61,0A1,1,0,0,1,34.89,42.35Z"/><path class="cls-1" d="M41.34,39.84a.18.18,0,0,1,0-.1c.11-.12.23-.24.35-.35a.18.18,0,0,1,.1,0A1.32,1.32,0,0,1,41.34,39.84Z"/><path class="cls-1" d="M38.88,41.47s0,0,0,0a1.3,1.3,0,0,1,.52-.27.11.11,0,0,1,.08,0A1.74,1.74,0,0,1,38.88,41.47Z"/><path class="cls-1" d="M41.92,39.25a.16.16,0,0,1,0-.15l.22-.3a.1.1,0,0,1,.12,0A1.21,1.21,0,0,1,41.92,39.25Z"/><path class="cls-1" d="M4.75,34.75s.06,0,.06,0,.07.25.1.38a.14.14,0,0,1,0,.13A1.18,1.18,0,0,1,4.75,34.75Z"/><path class="cls-1" d="M5.57,37.58s.07,0,.07,0,.24.3.21.51A1.59,1.59,0,0,1,5.57,37.58Z"/><path class="cls-1" d="M42.56,38.38a.5.5,0,0,1,.25-.47A.94.94,0,0,1,42.56,38.38Z"/><path class="cls-1" d="M12.15,42.16a.09.09,0,0,1,.1,0c.12,0,.26,0,.36.13A.67.67,0,0,1,12.15,42.16Z"/><path class="cls-1" d="M42.31,38.75a.33.33,0,0,1,.24-.37A.77.77,0,0,1,42.31,38.75Z"/><path class="cls-1" d="M42.82,37.9c0-.25,0-.3.19-.36A1.11,1.11,0,0,1,42.82,37.9Z"/><path class="cls-1" d="M43.59,35.79c-.08-.16-.07-.21.08-.29A.31.31,0,0,1,43.59,35.79Z"/><path class="cls-1" d="M43,37.46c-.08,0-.05-.08,0-.14s.07-.15.17-.16A.48.48,0,0,1,43,37.46Z"/><path class="cls-1" d="M43.18,37.08c-.07-.13,0-.17.11-.25A.27.27,0,0,1,43.18,37.08Z"/><path class="cls-1" d="M43.33,36.68s-.08,0,0-.1.06-.12.14-.13A.21.21,0,0,1,43.33,36.68Z"/><path class="cls-1" d="M5.41,37.2c.15.08.17.13.14.33A.81.81,0,0,1,5.41,37.2Z"/><path class="cls-1" d="M43.47,36.25c-.08-.13-.07-.15.07-.21A.19.19,0,0,1,43.47,36.25Z"/><path class="cls-1" d="M5.85,38.12c.16,0,.17.15.17.28C5.91,38.34,5.89,38.23,5.85,38.12Z"/><path class="cls-1" d="M38.55,41.6c.09-.13.13-.14.25-.1A.24.24,0,0,1,38.55,41.6Z"/><path class="cls-1" d="M4.59,33.09a1.13,1.13,0,0,1,0,.52A1,1,0,0,1,4.59,33.09Z"/><path class="cls-1" d="M40.8,40.33c0-.15.05-.16.21-.17A.28.28,0,0,1,40.8,40.33Z"/><path class="cls-1" d="M13.79,42.36a.9.9,0,0,1,.43,0A.9.9,0,0,1,13.79,42.36Z"/><path class="cls-1" d="M34.4,42.38a1.25,1.25,0,0,1,.43,0A.79.79,0,0,1,34.4,42.38Z"/><path class="cls-1" d="M5.28,36.87c.12.05.13.07.08.17A.14.14,0,0,1,5.28,36.87Z"/><path class="cls-1" d="M8.58,40.92c.1,0,.18,0,.2.12A.25.25,0,0,1,8.58,40.92Z"/><path class="cls-1" d="M6.6,39.2c.1,0,.14,0,.13.15A.18.18,0,0,1,6.6,39.2Z"/><path class="cls-1" d="M43.88,34.05c-.07-.07-.06-.11,0-.13S43.94,34,43.88,34.05Z"/><path class="cls-1" d="M40.56,40.52c0-.1.06-.12.14-.1S40.63,40.53,40.56,40.52Z"/><path class="cls-1" d="M10,41.59c.06,0,.13,0,.15.06A.15.15,0,0,1,10,41.59Z"/><path class="cls-1" d="M8.46,40.84c.07,0,.1,0,.11.07A.09.09,0,0,1,8.46,40.84Z"/><path class="cls-1" d="M9.16,41.22c.07,0,.11,0,.12.07A.1.1,0,0,1,9.16,41.22Z"/><path class="cls-1" d="M9.41,41.35q.11,0,.12.06A.11.11,0,0,1,9.41,41.35Z"/><path class="cls-1" d="M9.77,41.5c.07-.07.08,0,.09,0A.07.07,0,0,1,9.77,41.5Z"/><path class="cls-1" d="M5.13,36.41c.07,0,.08.07,0,.12A.08.08,0,0,1,5.13,36.41Z"/><path class="cls-1" d="M5.19,36.58c.06,0,.11,0,0,.09S5.17,36.62,5.19,36.58Z"/><path class="cls-1" d="M6,38.41c.07,0,.09.05.07.11S6,38.47,6,38.41Z"/><path class="cls-1" d="M6.11,38.54c.07,0,.09,0,.08.11S6.1,38.59,6.11,38.54Z"/><path class="cls-1" d="M7.76,40.33c.07,0,.1,0,.1.09A.09.09,0,0,1,7.76,40.33Z"/><path class="cls-1" d="M40.43,40.63c0-.08,0-.1.11-.08A.12.12,0,0,1,40.43,40.63Z"/><path class="cls-1" d="M8.21,40.68c.06,0,.1,0,.11.07S8.22,40.73,8.21,40.68Z"/><path class="cls-1" d="M43.68,35.44a.14.14,0,0,1,0-.15A.13.13,0,0,1,43.68,35.44Z"/><path class="cls-1" d="M44.09,30.72s0,0,0,0A0,0,0,0,1,44.09,30.72Z"/><path class="cls-1" d="M4.45,29v.09S4.4,29,4.45,29Z"/><path class="cls-1" d="M10.24,41.68s0,0,.07,0S10.25,41.72,10.24,41.68Z"/><path class="cls-1" d="M5.39,37.12l0,.06S5.37,37.15,5.39,37.12Z"/><path class="cls-1" d="M5.26,36.79l0,.06S5.25,36.82,5.26,36.79Z"/><path class="cls-1" d="M35.81,42.25h.06S35.84,42.27,35.81,42.25Z"/><path class="cls-1" d="M43.55,36v-.06S43.58,36,43.55,36Z"/><path class="cls-1" d="M12.67,42.24h.05S12.68,42.26,12.67,42.24Z"/><path class="cls-1" d="M24.27,11.42a9,9,0,0,1,2.08.14,10.88,10.88,0,0,1,1.48.33c.32.09.64.2,1,.31a8.55,8.55,0,0,1,.94.4,11.13,11.13,0,0,1,1.08.57,12.42,12.42,0,0,1,2.31,1.77,12.19,12.19,0,0,1,2,2.46,11.45,11.45,0,0,1,.73,1.44,9.73,9.73,0,0,1,.49,1.37,12.81,12.81,0,0,1,.32,1.52,15,15,0,0,1,.11,2.32,8.94,8.94,0,0,1-.09.89c0,.35-.11.71-.18,1.06s-.1.42-.16.62a14.77,14.77,0,0,1-.6,1.61,11.49,11.49,0,0,1-1.7,2.7,12.12,12.12,0,0,1-2.93,2.55,12.32,12.32,0,0,1-1.6.86,11.82,11.82,0,0,1-1.64.58c-.43.12-.87.23-1.31.31a11,11,0,0,1-1.72.18c-.52,0-1.05,0-1.57,0s-.92-.09-1.38-.19L21.08,35a9,9,0,0,1-1-.3c-.31-.12-.63-.23-.93-.36s-.58-.26-.86-.41a14,14,0,0,1-1.39-.86,13,13,0,0,1-2.17-2,13.5,13.5,0,0,1-1.23-1.69A13,13,0,0,1,12.75,28a11.12,11.12,0,0,1-.48-1.37c-.07-.25-.13-.5-.19-.76s-.12-.78-.19-1.17a3.05,3.05,0,0,1-.06-.6,14.44,14.44,0,0,1,0-1.74c.05-.43.1-.87.19-1.29s.13-.53.19-.79a8.1,8.1,0,0,1,.31-1c.11-.29.23-.59.36-.88s.28-.55.43-.82a12.18,12.18,0,0,1,.9-1.35,10.28,10.28,0,0,1,.92-1.06A11.59,11.59,0,0,1,17,13.67a14.55,14.55,0,0,1,1.7-1c.34-.16.69-.31,1-.45s.63-.22.95-.31.51-.14.76-.2.62-.14.94-.18A10.26,10.26,0,0,1,24.27,11.42Zm8.08,11.89A7.75,7.75,0,0,0,32.21,22a8.51,8.51,0,0,0-.35-1.22,7.49,7.49,0,0,0-.72-1.41,7.74,7.74,0,0,0-1.42-1.65,8,8,0,0,0-2.09-1.34,8.43,8.43,0,0,0-1.31-.45,7.8,7.8,0,0,0-1.93-.25,8.39,8.39,0,0,0-1.57.13,8.3,8.3,0,0,0-1.28.33,8.51,8.51,0,0,0-1.5.7,8,8,0,0,0-1.73,1.38,8.16,8.16,0,0,0-1.38,2,7.9,7.9,0,0,0-.46,1.26,7.07,7.07,0,0,0-.26,1.76,7.27,7.27,0,0,0,.27,2.22,8.08,8.08,0,0,0,.74,1.77,7.49,7.49,0,0,0,1.35,1.72,7.72,7.72,0,0,0,2.68,1.71,8.17,8.17,0,0,0,1,.32,8,8,0,0,0,1.82.25,7.79,7.79,0,0,0,1.67-.13A9.08,9.08,0,0,0,27,30.74,7.71,7.71,0,0,0,28.64,30a8.08,8.08,0,0,0,1.81-1.54,7.55,7.55,0,0,0,.91-1.27,8.86,8.86,0,0,0,.6-1.33,9,9,0,0,0,.33-1.41A6.18,6.18,0,0,0,32.35,23.31Z"/><path class="cls-1" d="M37.21,13.75a2.86,2.86,0,0,1-2.52-1.42,2.64,2.64,0,0,1-.26-2.21,2.91,2.91,0,0,1,3-2,2.88,2.88,0,0,1,2,1,2.65,2.65,0,0,1,.67,1.42,3,3,0,0,1,0,1.07,2.52,2.52,0,0,1-.64,1.19,3,3,0,0,1-1.11.78A3,3,0,0,1,37.21,13.75Z"/></svg>