<svg id="Layer_1" data-name="Layer 1" xmlns="http://www.w3.org/2000/svg" viewBox="0 0 94.13 105.61"><defs><style>.cls-1{fill:#818386;}</style></defs><title>تطبيق الزهور577777</title><path class="cls-1" d="M18.16,96.93c-1.26,4.93-3.84,8.61-9.47,8.68A8.71,8.71,0,0,1,.45,99.48c-1.61-5.54,1.29-9.07,5.79-11.65-1.53-2.3-1.46-3.07,1-4S10.38,81.4,10.44,79c0-1.49-.22-3.21,1.62-4.18.38-.2.37-1.31.41-2q.72-12.35,1.39-24.69a4.13,4.13,0,0,0-.07-1.65C11,39.32,14.87,33.14,16.74,26.66a3,3,0,0,1,.65-1.26c2.79-2.72,2.68-6,1.86-9.42-.42-1.79.28-2.81,2.13-2.82,3.7,0,7.4-.16,11.08.09,2.87.19,4.11-.55,5.31-3.18,1.41-3.09,3.16-6,4.87-9C43.58-.54,44.76-.14,46,1,51,5.52,55.79,10.28,56.34,17.67a40.4,40.4,0,0,1,5.38-1.52A11.49,11.49,0,0,1,74.48,28.39a5.66,5.66,0,0,0,1.17,4.11c1.17,1.65,1.87,3.64,3,5.35a3.56,3.56,0,0,0,2.2,1.43c4.94.73,8.74,3.56,12.48,6.53,1.29,1,.84,2,.06,3C89.86,53.75,89.6,54,82.32,58.27c1.48,4.64,3,9.11,4.33,13.61.66,2.19.12,2.89-2.22,3-4.42.17-8.88.62-13.17-1.05a2.5,2.5,0,0,0-1.59.1Q52.78,79.56,35.91,85.25c-1.73.58-3.49,1.07-5.17,1.77-.7.29-1.17,1.08-1.83,1.52a13.75,13.75,0,0,1-3.38,2c-2.29.71-3.5,1.94-3.75,4.44S20.79,97.77,18.16,96.93Zm1.29-16.68a61.7,61.7,0,0,0,5.23,3.64,4.45,4.45,0,0,0,3.15.48c5.3-1.64,10.53-3.48,15.79-5.26,2.44-.82,4.88-1.66,8-2.74C43.23,74.13,38.11,68,31.77,64ZM17.07,50.7c-.5,8.73-1,17.14-1.43,25.56,0,.49.46,1,.61,1.31L28.85,61a63.15,63.15,0,0,1-6.2-4.26A71.63,71.63,0,0,1,17.07,50.7ZM49,24.31c2.88.48,3.58-1.31,4-3.12,1.19-5.74-3.08-13.85-8.51-16.43-5.85,8.42-6.11,16.47-.67,22.48A2.59,2.59,0,0,0,45.61,24c-.61-3.42-1-6.89-1.45-10.43l3.34-.45ZM22.7,16c.52,6.08,2.18,10.88,6.83,14.19.48.34,1.14.79,1.63.69,1.95-.36,3.86-.92,6.23-1.53L29,23.46l2.21-3.37,7.7,6.44c-.61-1.68-1.4-2.92-1.45-4.18-.18-4.24-3.2-5.43-6.45-6C28.4,15.86,25.68,16.08,22.7,16ZM90.05,47.63c-3.9-3.34-7.11-4.88-10.81-5.08a2.93,2.93,0,0,0-2.2.75A46.11,46.11,0,0,0,74.23,48l6.36-.86L81,50.51l-5.26.71L70.39,52C71.83,56,71.83,56.05,75.6,56,81.92,55.94,86.5,52.83,90.05,47.63Zm-6.86,23.9c-.64-2.28-1.06-4.3-1.77-6.22-2-5.33-3.53-6.26-9.62-5.89.32,3.12,3.71,3.4,5.08,5.68l-2.22,3-4-4-3.07,3.62C72,71.83,77.34,72,83.19,71.53ZM13.66,80.15c-.28,2.45,0,5.16-3.2,5.7L19,92.31c-.48-3.3,2.55-3.59,4.56-4.64ZM18,46.53c1.3-2.91,2.13-6.27,4.09-8.73,2.33-2.94,5.91-1.64,9.13-.67a7.46,7.46,0,0,0-7.54-4,7.89,7.89,0,0,0-7.06,5.51A7.4,7.4,0,0,0,18,46.53ZM68,31.15c.61,1,.86,1.55,1.21,2,3,3.85,2.06,8.23-2.22,10.51-1.53.82-3,1.74-4.61,2.67,4.71,2.23,9.74.3,11.49-4.26S73.23,32.65,68,31.15Zm-12.74,23A7.18,7.18,0,0,0,47.78,50a7.85,7.85,0,0,0-7.05,5.57,7.6,7.6,0,0,0,1.34,7.82c1.36-3,2.16-6.3,4.11-8.66C48.5,51.94,52,52.73,55.25,54.12ZM56,23.5c1-.09,2-.16,3-.26a7.48,7.48,0,0,1,7,2.64c1.4,1.82,3.17,2,5.08,2.35,0-4.28-2.28-7.43-6-8.52C61.83,18.73,57.13,20.4,56,23.5ZM66.35,63.92c2.93-3.53,3-7.58.43-10.81a7.67,7.67,0,0,0-9.67-2c1.64,1.38,3.12,2.51,4.46,3.8A16.81,16.81,0,0,1,65,58.75C65.73,60.22,65.87,62,66.35,63.92ZM33.16,34c1.17,1.25,2.05,2.76,3.36,3.49,2.51,1.4,4.28,3.17,4.86,6,.23,1.11.47,2.21.74,3.46a8.08,8.08,0,0,0,.64-10.56A7.75,7.75,0,0,0,33.16,34ZM7.5,101.82c3.19,1,5.53-.43,6.9-4s1.17-4-2.46-5.6C10.47,95.4,9,98.6,7.5,101.82ZM34.86,54.11a64.29,64.29,0,0,1-6.75-2.5A50.33,50.33,0,0,1,22.6,48a6.68,6.68,0,0,0,4.2,6.8A7.55,7.55,0,0,0,34.86,54.11ZM59,71a60.13,60.13,0,0,1-6.76-2.46,62.89,62.89,0,0,1-6.21-4.09c.57,4,2.26,6.19,5.16,7.38A7.45,7.45,0,0,0,59,71ZM51.58,31.64a7.3,7.3,0,0,0,1,8.74A7.52,7.52,0,0,0,60.09,43c-1.11-1.44-1.77-3.09-2.94-3.65C53.91,37.82,52.2,35.37,51.58,31.64Zm13.32-.82c-.93-3.46-3.48-5-6.38-4a4.45,4.45,0,0,0-3.08,5.84c1.32-.88,2.6-2.32,4.1-2.61S63,30.49,64.9,30.82ZM56.25,57.63c3.64,3,3.79,6.06.8,9.28,3.61-.18,5.66-2.36,5.37-5.41C62.15,58.77,59.73,57,56.25,57.63ZM33.41,50.12a4.93,4.93,0,0,0,4-7.71,4.35,4.35,0,0,0-4.74-2c.83,1.67,2.07,3.12,2.17,4.65S34,48.34,33.41,50.12Zm13.77-4.24c2.8,1.48,6.6,1.77,8.3.93l-7.59-6.2ZM9.12,90.27c-5.53,2.39-7.26,6.18-4.41,9.57ZM31.38,59.13l6.81,5.18-1.67-7Zm34.71-24-3.86,5c1.75,1.25,3.64,1.12,4.72-.45A3.08,3.08,0,0,0,66.09,35.09ZM48.57,62.2l3.87-4.93c-1.72-1.25-3.58-1.14-4.69.41A3.08,3.08,0,0,0,48.57,62.2ZM28.16,40.41c-1.55-1.33-3.22-1.29-4.49.4s-.89,3.29.8,4.44ZM48.87,27.76c-1.69,1.51-3.43,2.65-4.47,4.24-.34.53,1.12,2.24,1.77,3.4a9.49,9.49,0,0,0,.6.85ZM21.22,25.28,18.48,31l5.35-1.49Zm39.09,7.11c-.71,1.22-1.46,2-1.34,2.5a2.12,2.12,0,0,0,1.65,1.34,2.14,2.14,0,0,0,1.4-1.6C62.05,34.08,61.19,33.48,60.31,32.39Zm-8.59,30.5C53,63.5,53.8,64.18,54.35,64s1-1.1,1.43-1.7c-.61-.45-1.22-1.26-1.83-1.26S52.82,61.94,51.72,62.89ZM30.51,48.09c.52-1.43,1.07-2.21.93-2.81S30.18,44,29.83,44.17a2.33,2.33,0,0,0-1.29,1.73C28.55,46.45,29.46,47,30.51,48.09ZM66.94,71.6l-1.85-1.34-2.92,3Z"/></svg>