<svg id="Layer_1" data-name="Layer 1" xmlns="http://www.w3.org/2000/svg" viewBox="0 0 84.2 103.62"><defs><style>.cls-1{fill:#d18031;}.cls-2{fill:#bf752f;}.cls-3{fill:#464c50;}.cls-4{fill:#f0e5d4;}.cls-5{fill:#31363b;}.cls-6{fill:#32373b;}.cls-7{fill:#e2d5c3;}.cls-8{fill:#e3d6c4;}.cls-9{fill:#010100;}.cls-10{fill:#9ee357;}.cls-11{fill:#9ee356;}</style></defs><title>تطبيق الزهور577777</title><path d="M42.09.06C51.25.06,60.41.17,69.57,0c2.84,0,4.07,1.15,4.5,3.69,0,.28.09.57.14.85C75,9,75,9,79.6,9.23c3.17.14,4.5,1.48,4.57,4.67q.06,2.74,0,5.49c-.07,3-1.19,4.37-4.09,4.44-1.55,0-2.11.63-2.14,2,0,2.63-1.79,5.39.64,7.88.61.62.31,1.67.19,2.53q-3.64,25.44-7.31,50.9c-.13.85,0,1.94-.78,2.4-2.8,1.68-2.43,4.55-2.78,7.1-.72,5.17-2.55,7-7.67,7q-18.09.06-36.17,0c-5.16,0-7-1.83-7.74-7-.35-2.54-.44-5-2.61-7.2s-1.46-5.85-1.9-8.87C9.63,65.9,7.6,51.21,5.52,36.53c-.14-1-.57-2.13.12-2.8,1.88-1.8,1.18-3.82.93-5.9S6.44,23.47,3,23.69C1.32,23.8.17,22.13.1,20.29a69.74,69.74,0,0,1,0-7.23C.23,10.48,1.8,9.32,4.87,9.23c4.3-.12,4.3-.12,5.11-4.35C10.87.21,11.05.06,15.76.06Z"/><path class="cls-1" d="M47.75,89.68c-.36-1.91-1.85-1.61-3.17-1.61-8.67,0-17.33-.07-26,.05-2.08,0-2.74-.55-3-2.65-2.25-16.57-4.65-33.12-7-49.67-.05-.38-.2-.75.19-1a5.07,5.07,0,0,1,2.56-.24H62.8c3.4,0,3.69.26,3.23,3.66C64,53.57,61.73,68.93,59.5,84.3A5.6,5.6,0,0,1,58,88c-1.32,0-2.65.13-4,.08a2.17,2.17,0,0,0-2.38,1.58A2.51,2.51,0,0,1,47.75,89.68Z"/><path class="cls-2" d="M58,88q1.82-12.77,3.63-25.54t3.8-25.8c.18-1.24-.24-1.83-1.51-1.81H61.62l-52.88,0c.78-.87,1.81-.47,2.72-.47,20.44,0,40.87.05,61.31,0,2.77,0,3.11.78,2.73,3.3q-3.6,24-6.86,48c-.27,1.91-.83,2.68-2.83,2.54C63.22,87.92,60.62,88,58,88Z"/><path class="cls-3" d="M3.09,18c-.23-7-.27-5.65,5.54-5.77,2.7-.05,5.4,0,8.1,0,1.29,0,2.3-.27,2.55-1.73,1.52-1.16,2.79-.72,3.94.59.81,1.58,2.31,1.11,3.59,1.12q22,.06,43.93.07a4.86,4.86,0,0,1-2.55,6.86,11,11,0,0,1-4.8.9H7.81C6,20,4.07,20.06,3.09,18Z"/><path class="cls-4" d="M63.81,31.23q-26,.06-52.08.11c-1.11,0-1.79-.16-1.83-1.53-.05-1.81-.81-3.57-.47-5.43,1-.54,2.08-.27,3.11-.27q24.27,0,48.52,0c4.38,0,5.53,1.9,3.65,6A3.58,3.58,0,0,1,63.81,31.23Z"/><path class="cls-4" d="M47.75,89.68l3.91-.05,1.17,1.44c3,.47,3.21.78,2.92,3.65-.09.87-.23,1.72-.35,2.58-.31,2.2-1.23,3.34-3.79,3.27-9.71-.27-19.43.2-29.14-.26-2.4.07-2.7-1.72-3-3.46-1.09-5.79-1.08-5.79,4.69-5.79H44.65C45.87,91.05,47.25,91.34,47.75,89.68Z"/><path class="cls-5" d="M3.09,18a7.51,7.51,0,0,0,4.37,1.19c18.67,0,37.35,0,56,0,5.48,0,7.3-1.77,7.25-6.88,2.6,0,5.21,0,7.8-.08,2-.1,2.7.78,2.67,2.74-.1,6.9.58,6-5.78,6-23,0-46.07,0-69.11,0C4.21,20.93,2.57,20.75,3.09,18Z"/><path class="cls-3" d="M12.86,6.43c-.08-2.41.69-3.57,3.49-3.54C31.19,3.06,46,3,60.89,3c1,2.5.37,3.93-2,4.64a9.51,9.51,0,0,1-2.86.3Q36.39,8,16.73,8C15.33,7.94,13.55,8.43,12.86,6.43Z"/><path class="cls-6" d="M12.86,6.43c.75.88,1.78.58,2.7.58H56.89c3.57,0,4-.4,4-4C63.4,3,65.9,3,68.41,3c2.14,0,3.65,2.24,3.35,5.18-.21,2.08-2,1.1-3,1.1-14.08.07-28.15,0-42.23.06-1.4,0-3.05-.35-3.33,1.78a9.3,9.3,0,0,0-3.94-.59c-1.16-1.94-3.07-1.14-4.66-1.16C12.24,9.31,11.69,8.46,12.86,6.43Z"/><path class="cls-7" d="M22.47,100.31c9.5,0,19-.2,28.49-.08,2.73,0,3.56-1.12,3.6-3.5a5,5,0,0,1,.21-2c1-2.16-.06-3.11-1.94-3.68,3.66,0,7.32,0,11,0,1.44,0,2,.42,1.55,1.83a1.35,1.35,0,0,0,0,.29c-1.2,6.69.55,7.49-8.48,7.4-10.41-.1-20.82,0-31.23,0C24.56,100.55,23.52,100.39,22.47,100.31Z"/><path class="cls-8" d="M63.81,31.23C65,24.41,65,24.41,58.19,24.41l-48.76,0c.7-1,1.75-.48,2.62-.48,20.05,0,40.09,0,60.14,0,2.26,0,3.23.5,2.6,2.84a2.74,2.74,0,0,0-.1.86c.15,3.25-1.45,4.24-4.54,3.83A53.53,53.53,0,0,0,63.81,31.23Z"/><path class="cls-9" d="M39,74.76c-7.64,0-12.74-6.22-11.28-13.73,1.62-8.4,8.85-15,16.88-15.4s13.35,5.66,12,13.55C55,67.87,47.22,74.78,39,74.76Z"/><path class="cls-10" d="M49.58,49.57a20.06,20.06,0,0,0-8.27,10.11c-1.52,3.75-5,5.94-8.26,8.23-1,.68-1.35.15-1.7-.65a10.36,10.36,0,0,1-.54-6.2C32.33,52.64,41.67,46.66,49.58,49.57Z"/><path class="cls-11" d="M34.64,70.69c1.4-1.11,2.59-2,3.75-3a19.75,19.75,0,0,0,6.67-8.86c.94-2.78,3.12-4.51,5.39-6.2,1.59-1.18,2.19-.36,2.66,1A11,11,0,0,1,53.47,59C52.26,67,43,73.5,35.88,71.29A12.6,12.6,0,0,1,34.64,70.69Z"/><circle cx="17.9" cy="10.66" r="1.42"/><circle cx="24.64" cy="10.88" r="1.44"/></svg>