<svg id="Layer_1" data-name="Layer 1" xmlns="http://www.w3.org/2000/svg" viewBox="0 0 51.66 57.45"><defs><style>.cls-1,.cls-2{fill:#970863;}.cls-1{fill-rule:evenodd;}</style></defs><title>تطبيق الزهور577777</title><path class="cls-1" d="M33.58,37.71a7,7,0,0,1-2.76-.34c-6.09-1.79-10.69-5.52-14.39-10.58a15,15,0,0,1-3.09-6.27,7.21,7.21,0,0,1,2.4-7.09,4,4,0,0,1,3.54-.53,2.55,2.55,0,0,1,.59.69c.76,1.89,1.56,3.65,2.33,5.44a1.43,1.43,0,0,1-.12,1.14,10.2,10.2,0,0,1-1.63,2.2,1.34,1.34,0,0,0-.1,1.54,17.73,17.73,0,0,0,9,7.71,1,1,0,0,0,1.36-.3c.69-.8,1.36-1.67,2-2.51a1.12,1.12,0,0,1,1.48-.35c1.3.57,2.59,1.19,3.83,1.76l.89.44c1.32.66,1.32.74,1.17,2.14-.18,2.78-2.31,4.18-4.74,4.87A4.09,4.09,0,0,1,33.58,37.71Z"/><path class="cls-2" d="M31.1.53A25.82,25.82,0,0,0,8.38,44.84V55a2.44,2.44,0,0,0,3.74,2.06l9.25-5.85a24.42,24.42,0,0,0,4.44.37A25.8,25.8,0,0,0,31.1.53ZM25.81,47.12a20.69,20.69,0,0,1-4.41-.48l-.91-.2-7.6,4.81V42.77l-.2-.16a22.11,22.11,0,0,1-7.9-13.35,21.33,21.33,0,1,1,21,17.86Z"/></svg>