<svg id="Layer_1" data-name="Layer 1" xmlns="http://www.w3.org/2000/svg" viewBox="0 0 96.75 97"><defs><style>.cls-1{fill:#a0d8e5;}.cls-2{fill:#f95a67;}.cls-3{fill:#fa5b68;}.cls-4{fill:#fa5a67;}.cls-5{fill:#ed4854;}.cls-6{fill:#ee4855;}.cls-7{fill:#8cd1e4;}.cls-8{fill:#88cbde;}.cls-9{fill:#87cbde;}.cls-10{fill:#9ad0dc;}</style></defs><title>تطبيق الزهور577777</title><path d="M96.74,28.78c.05-2-.75-2.72-2.71-2.65-2.82.1-5.66,0-8.45,0-.11-1,.5-1.17.84-1.55C94,16.09,89.79,2.66,78.55.72,72.11-.39,65.44-.06,58.92.68c-4.86.56-8.05,3.86-10.59,8C45.43,3.62,41.38.58,35.69.37,30.57.19,25.43.21,20.3.35A14.44,14.44,0,0,0,6.5,14.55c-.07,4.47,1.78,8.1,5.26,11.61-3.48,0-6.27.07-9,0-2-.07-2.75.63-2.71,2.65.1,4.68.09,9.36,0,14,0,1.84.67,2.83,2.5,2.57,2.16-.3,2.44.66,2.43,2.56-.08,15.21-.05,30.41-.05,45.62C4.89,97,4.91,97,8.42,97H88.33c3.49,0,3.52,0,3.52-3.43,0-15.3,0-30.6,0-45.89,0-1.65.25-2.54,2.15-2.28,2.11.29,2.83-.77,2.78-2.86C96.64,38,96.65,33.37,96.74,28.78ZM72.52,9.2c4.63,7.36-.71,16.5-9.67,16.94-1.7.09-3.41,0-5.65,0C59.86,20.23,61.94,14.47,65,9.23S69.33,4.15,72.52,9.2Zm-46-2.93c1.1-1,2-1,3,0a12.68,12.68,0,0,1,2.36,2.9c2.58,5.49,5,11,7.68,17-3.14-.1-5.74.27-8.32-.41a10.79,10.79,0,0,1-8.3-8.29C21.89,13.1,23.25,9.35,26.56,6.27Z"/><path class="cls-1" d="M14.06,50.52c-.78,1.69-1.54,3.38-2.34,5s-.08,2.91,1.56,2.7c5.06-.64,8.67.92,11.15,5.56.91,1.7,2.4,1,3.18-.7q3-6.56,6.06-13.11c1.07-.69,2.26-.43,3.41-.36,3,.18,3.18.4,3.18,3.32,0,11.22,0,22.43,0,33.64,0,2.31.34,4.65-.24,6.94-10.16.07-20.32.1-30.48.22-1.91,0-1.37-1.24-1.37-2.18q0-12.42,0-24.84c0-5.58,0-11.16.08-16.74C10.9,48.69,12.57,48.84,14.06,50.52Z"/><path class="cls-1" d="M88.52,50q0,21.06.1,42.12c0,1-.06,1.66-1.39,1.64-10.16-.11-20.32-.15-30.48-.22a5.74,5.74,0,0,1-.26-2.9q0-18.3,0-36.6c0-4.23.29-4.51,4.53-4.48a3.46,3.46,0,0,1,2.07.44Q66,56.33,68.93,62.65c1.26,2.69,2.25,2.78,4.11.37a3.76,3.76,0,0,0,.48-.65c1.66-3.4,4.35-4.36,8.06-4.06,4.11.33,4.49-.55,2.76-4.2-.56-1.19-1.58-2.16-1.65-3.57C84.47,48.51,86.46,48.91,88.52,50Z"/><path class="cls-2" d="M53,93.57a45.23,45.23,0,0,1-9.16,0,4.73,4.73,0,0,1-.26-2.63q0-26.14,0-52.29c0-3.21.26-3.47,3.5-3.59,6.21-.23,6.21-.23,6.21,6q0,24.81,0,49.6C53.21,91.64,53.47,92.65,53,93.57Z"/><path class="cls-3" d="M39.39,29.4,25.46,60.06c-2-4.22-5.25-5.88-10.06-4.73,4.37-8.73,8.42-16.81,12.45-24.91a1.62,1.62,0,0,1,1.67-1C32.66,29.42,35.79,29.4,39.39,29.4Z"/><path class="cls-3" d="M81.39,55.43c-4.93-1.18-8,.33-10,4.81-4.78-10.53-9.29-20.44-14-30.81H67.73c.67,0,.9.49,1.14,1Z"/><path class="cls-1" d="M24.76,29.4c-2.1,4.21-4,8-5.81,11.7A1.82,1.82,0,0,1,17,42.2c-4,0-8.07-.06-12.11,0-1.3,0-1.7-.41-1.67-1.69.08-3.14.07-6.28,0-9.42,0-1.21.23-1.75,1.6-1.73C11.31,29.44,17.76,29.4,24.76,29.4Z"/><path class="cls-1" d="M83.08,29.4c3,0,5.92,0,8.88,0,1.16,0,1.56.33,1.53,1.52-.06,3.22-.08,6.46,0,9.68,0,1.38-.54,1.64-1.74,1.63-4-.06-7.9,0-11.85,0A2,2,0,0,1,77.76,41c-1.62-3.38-3.29-6.75-5-10.08-.84-1.59.06-1.58,1.2-1.57C77,29.41,80,29.4,83.08,29.4Z"/><path class="cls-2" d="M65.18,3.73C62,6.53,60.8,10,59.34,13.38c-1.6,3.7-3.26,7.36-4.82,11.08a2.47,2.47,0,0,1-2.58,1.74c-7.71.15-7.7.2-4.57-6.88,1.05-2.37,2.06-4.76,3.09-7.14C53.5,5.19,57,3.11,65.18,3.73Z"/><path class="cls-4" d="M24.11,3.8C17.74,12,17.77,17.94,24,25.71a11.42,11.42,0,0,1-11.86-3.86A11.27,11.27,0,0,1,11.07,9.47C13.53,5,17.82,3.06,24.11,3.8Z"/><path class="cls-4" d="M72.63,26.09C79,16.5,79,12.59,72.71,3.76c4.84-.73,9,.3,12,4.22a10.57,10.57,0,0,1,1.13,11.9C83.12,25.1,78.42,26.55,72.63,26.09Z"/><path class="cls-5" d="M42,23.46c-3.73-6.66-5.17-14-10.22-19.75,4-.47,7.54-.07,10.63,2.56,3.6,3.05,4.37,6.26,2.49,10.54C44,18.93,43.06,21.06,42,23.46Z"/><path class="cls-6" d="M53,93.57c0-18.16-.06-36.33,0-54.5,0-2.45-.62-3.23-3.14-3.16-6,.16-6,0-6,6.13q0,25.77,0,51.53c-.64-.69-.33-1.54-.33-2.31,0-19.7.1-39.4,0-59.1,0-2.28.62-2.85,2.85-2.81,6.83.11,6.91,0,6.93,6.85q.06,27.81,0,55.6C53.29,92.4,53.52,93.07,53,93.57Z"/><path class="cls-7" d="M40,93.56c0-13.32-.07-26.64,0-40,0-2.24-.4-3.48-2.92-3.05A7.75,7.75,0,0,1,33.67,50c.49-1.15,1-2.31,1.47-3.45.9-2,2.67-1,4.06-1.09,1.24-.12,1,1,1,1.74q0,22.82,0,45.62A2.39,2.39,0,0,1,40,93.56Z"/><path class="cls-7" d="M63.08,50a7.63,7.63,0,0,1-3.43.52c-2.53-.43-2.94.81-2.92,3.05.08,13.33,0,26.65,0,40-.51-.53-.29-1.19-.29-1.8q0-21.86.06-43.73c0-.89-.75-2.49,1-2.53,1.54,0,3.54-.91,4.29,1.55A27.39,27.39,0,0,0,63.08,50Z"/><path class="cls-8" d="M88.52,50c-1.94.16-4-.45-5.83.52l-2.8-5.14c2.84,0,5.22,0,7.61,0,1,0,1.15.6,1.12,1.4C88.58,47.87,88.55,48.94,88.52,50Z"/><path class="cls-9" d="M14.06,50.52c-1.87-1.08-3.9-.26-5.84-.5C8,45.39,8,45.39,12.48,45.39h4A15.68,15.68,0,0,1,14.06,50.52Z"/><path class="cls-10" d="M40.3,36.55c0,1.31,0,2.62,0,3.93,0,.68.21,1.54-.81,1.68-.6.07-1.41.18-1.8-.13-.76-.6.14-1.26.35-1.84.48-1.3,1.16-2.53,1.76-3.79Z"/><path class="cls-10" d="M57,36.4c.63,1.34,1.33,2.66,1.86,4,.19.49,1,1.1.26,1.59a3.11,3.11,0,0,1-1.81.13c-.86-.08-.82-.79-.82-1.41v-4.2Z"/></svg>