<svg id="Layer_1" data-name="Layer 1" xmlns="http://www.w3.org/2000/svg" viewBox="0 0 89.73 89.65"><defs><style>.cls-1{fill:#818386;}</style></defs><title>تطبيق الزهور577777</title><path class="cls-1" d="M45.09,78.71c-6.81,12.6-19.07,13-26.49,7.75a18.34,18.34,0,0,1-8-13.91c-.43-4.78.71-7.92,5.86-15.2C9.83,56.26,4.88,52.85,2,46.77a18.23,18.23,0,0,1-.89-14.38A17.79,17.79,0,0,1,12,21.17c5.35-2.05,10.57-1.41,15.87,1.3-.93-7,.4-13.17,5.57-18A16.79,16.79,0,0,1,45.51,0C53.71.09,63.64,6.77,62,22.37c6.4-3.19,12.72-3.36,18.88.32a17.75,17.75,0,0,1,8.35,11.5,19,19,0,0,1-16.12,23.2c5,5.2,7.24,11.17,5.52,18.26A18,18,0,0,1,70,87.19C61.9,92,51.07,90,45.09,78.71ZM20.22,52.23l.16.56c3.55-1,7.12-2,10.63-3.11.47-.15.93-1.19.91-1.8a2.28,2.28,0,0,0-1-1.76c-2.67-1-5.42-1.8-8.14-2.71-2.31-.77-3.22-2.08-2.63-3.69s2-2,4.2-1.32c2.72.88,5.43,1.81,8.17,2.61a1.85,1.85,0,0,0,1.63-.46c.48-.66,1.13-1.81.86-2.31C32.46,33.43,29.58,29,24.3,26.56A13.21,13.21,0,0,0,5.85,34.72C3.17,43.87,10,52.23,20.22,52.23ZM57.8,46.54c.41,1.17.49,2.76,1.18,3.09a23.83,23.83,0,0,0,13.15,2.49A13.51,13.51,0,0,0,84.42,38.88a12.59,12.59,0,0,0-6.49-11.81c-4.7-2.76-9.33-2.2-14,.31-4.5,2.4-6.57,6.65-8.8,10.79-.28.52.46,1.76,1,2.48a1.92,1.92,0,0,0,1.67.33c2.81-.83,5.58-1.78,8.38-2.66,2-.62,3.44,0,3.92,1.52s-.36,2.8-2.42,3.48C64.53,44.35,61.44,45.35,57.8,46.54Zm-24.19,8c-5.33,1.62-10.29,3.53-14,7.61s-4.85,9-2.68,14.23a12.16,12.16,0,0,0,11.63,8c5.51.1,9.18-3,11.58-7.78C42.6,71.61,42.68,66.31,42.4,61c-1.82-1.2-3.14-1.1-4.36,1a63,63,0,0,1-4.66,6.49c-1.44,1.84-4,1.58-4.56-.53a4.32,4.32,0,0,1,.76-3.06c1.82-2.77,3.83-5.4,5.75-8Zm21.17,2.3c2,2.76,3.94,5.39,5.84,8,1.26,1.76,1.23,3.24-.06,4.24s-2.86.67-4.21-1.16c-1.66-2.25-3.36-4.47-4.91-6.8-.72-1.08-1.35-1-2.48-.74s-1.31,1-1.28,2c0,1.6,0,3.2,0,4.8a20.82,20.82,0,0,0,3.46,11.31c2.77,4.09,6.57,6.5,11.69,5.7a12.41,12.41,0,0,0,10.33-8.65,12.63,12.63,0,0,0-2.75-13.21c-3.72-4.17-8.7-6.19-13.93-7.85Zm-4.36-21c1.44-2.87,2.83-5.57,4.15-8.31A15.36,15.36,0,0,0,56,23.77a30.93,30.93,0,0,0,.79-7.08A11.75,11.75,0,0,0,45.21,5.27c-8.07-.06-13.77,7.38-12.16,15.88.87,4.59,3.25,8.52,5.41,12.57,1,1.88,2.08,2.34,4,1.06,0-3.26-.07-6.65.05-10a4,4,0,0,1,1.12-2.57A2.4,2.4,0,0,1,46,21.94a4.16,4.16,0,0,1,1.64,2.65c.19,3.44.07,6.9.07,10.38Zm2.49,12.09a7.85,7.85,0,0,0-15.69-.08,7.85,7.85,0,1,0,15.69.08Z"/></svg>