<svg id="Layer_1" data-name="Layer 1" xmlns="http://www.w3.org/2000/svg" xmlns:xlink="http://www.w3.org/1999/xlink" viewBox="0 0 341.51 64.66"><defs><style>.cls-1{fill:#fff;}.cls-2{font-size:29.64px;font-family:CenturyGothic-Bold, Century Gothic;font-weight:700;}.cls-3{fill:url(#linear-gradient);}.cls-4{fill:url(#linear-gradient-2);}.cls-5{fill:url(#linear-gradient-3);}</style><linearGradient id="linear-gradient" x1="72.74" y1="25.97" x2="104.56" y2="25.97" gradientUnits="userSpaceOnUse"><stop offset="0" stop-color="#057daf"/><stop offset="0.98" stop-color="#06a9d2"/><stop offset="1"/></linearGradient><linearGradient id="linear-gradient-2" x1="99.47" y1="36.65" x2="121.62" y2="36.65" xlink:href="#linear-gradient"/><linearGradient id="linear-gradient-3" x1="77" y1="48.73" x2="84.85" y2="48.73" xlink:href="#linear-gradient"/></defs><title>تطبيق الزهور577777</title><rect class="cls-1" width="341.51" height="64.66" rx="15.15" ry="15.15"/><text class="cls-2" transform="translate(126.38 41.29)">App Store</text><path class="cls-3" d="M85.61,32.55q1.9-3.24,3.8-6.49c1.13-2,2.21-3.95,3.39-5.87a1.58,1.58,0,0,0-.09-1.93c-1-1.52-1.83-3.12-2.66-4.73a2.8,2.8,0,0,1,.32-3.13,3.43,3.43,0,0,1,5.77.23c.34.56.66,1.13,1,1.74A6.12,6.12,0,0,0,98.08,11c1.09-1.87,3-2.55,4.71-1.62,1.82,1,2.3,3.06,1.16,5l-10,17.42c-.17.29-.31.61-.46.92L91.53,36a1.64,1.64,0,0,0,.92.13h6.93a4.07,4.07,0,0,1,4.24,4.1c0,.29,0,.57,0,.86A1.75,1.75,0,0,1,101.76,43h-.43c-8.22,0-16.44,0-24.66,0a3.71,3.71,0,0,1-3.78-2.5,2.72,2.72,0,0,1,.16-2.13,3.57,3.57,0,0,1,3.56-2.24c2.08,0,4.17,0,6.25,0a1,1,0,0,0,1.08-.62C84.46,34.53,85.05,33.55,85.61,32.55Z"/><path class="cls-4" d="M100.79,32.37a10.67,10.67,0,0,1-1.15-7.22,9.46,9.46,0,0,1,1.54-3.6c.51-.79.77-.78,1.25.05,1.81,3.15,3.61,6.29,5.43,9.44.25.44.54.86.81,1.3.62,1.1,1.25,2.18,1.85,3.29a.93.93,0,0,0,1,.54q3.21,0,6.42,0a3.55,3.55,0,0,1,3.73,3.44A3.44,3.44,0,0,1,117.93,43c-.83,0-1.66,0-2.48,0-.49,0-.63.08-.35.56.68,1.13,1.34,2.27,2,3.43a3.4,3.4,0,0,1-2.15,5.2,2.86,2.86,0,0,1-2.86-.71,12.37,12.37,0,0,1-1.83-2.76c-1.57-2.62-3.1-5.26-4.62-7.91C104,38,102.37,35.21,100.79,32.37Z"/><path class="cls-5" d="M81,45a7.46,7.46,0,0,1,3.5,1.09c.37.24.46.44.22.83-.82,1.37-1.6,2.76-2.44,4.12a3.12,3.12,0,0,1-3.62,1.18,3.17,3.17,0,0,1-1.55-3.55,7.8,7.8,0,0,1,1.59-2.78A2.73,2.73,0,0,1,81,45Z"/></svg>