<svg id="Layer_1" data-name="Layer 1" xmlns="http://www.w3.org/2000/svg" viewBox="0 0 71.25 84.82"><defs><style>.cls-1{fill:#818386;}</style></defs><title>تطبيق الزهور577777</title><path class="cls-1" d="M62.8,49.63,49.59,84.82,0,66.19,13.2,31.05l3.63,1.36L29,0,71.25,15.87,59.09,48.24ZM52.93,63.76,52,64c-4.32,1.19-7.41,0-9.73-3.82-1.5-2.46-2.61-2.87-5.37-2-4.22,1.35-7.59.07-9.88-3.75-1.47-2.44-2.6-2.9-5.35-2-2.5.84-4.93.83-7.09-.72a30,30,0,0,1-3.35-3.32L5.49,63.72,47.08,79.34ZM13.1,43.36c.82,1.13,1.63,2.13,2.31,3.22,1.27,2,2.62,2.55,4.89,1.85,4.79-1.49,7.75-.38,10.38,3.87,1.29,2.09,2.64,2.53,5,1.85a11.65,11.65,0,0,1,3.62-.61c3.07.13,5.15,1.86,6.62,4.48,1.18,2.08,2.6,2.55,4.86,1.89,1-.3,2.1-.42,3.13-.69a1.55,1.55,0,0,0,1-.62c.75-1.81,1.41-3.66,2.18-5.71l-.86.2c-4.6,1.27-7.54.11-10-3.91-1.34-2.22-2.61-2.62-5.15-1.91a12.34,12.34,0,0,1-3.94.54c-3-.19-4.86-2-6.27-4.48-1.15-2-2.58-2.68-4.56-1.89a8.1,8.1,0,0,1-10.72-3.82c0-.06-.18-.07-.32-.12ZM37.17,16.6l3-7.94L31.58,5.44l-3,7.94Zm28.62,1.73-8.57-3.22-3,7.88,8.57,3.22Zm-38.74-.82-3,7.94,8.56,3.21,3-7.94ZM61.23,30.4l-8.57-3.22-3,7.93,8.57,3.22ZM53,13.5,44.3,10.24c-.9,2.41-1.8,4.7-2.6,7a1.35,1.35,0,0,0,.41,1.23c2.57,1.05,5.18,2,7.85,3ZM39.88,22.36l-3,7.93,8.55,3.22,3-7.94Zm4,15.31-8.56-3.21c-1.35,2.68-2.64,5.22-.06,7.82a4.29,4.29,0,0,0,3.92,1.22C42.82,43.11,43,40.22,43.89,37.67ZM22.42,29.56c-.73,2-1.32,3.81-2.12,5.55a1.58,1.58,0,0,0,1.09,2.47,5.19,5.19,0,0,0,2.35.18c1.93-.3,3.84-.74,6-1.16l1.42-3.78Zm34.37,13L48,39.22a20.27,20.27,0,0,1-.73,1.91c-.73,1.42-.9,2.52.78,3.58,1,.6,1.38,2,2.26,2.87a9.5,9.5,0,0,0,2.89,1.73c.27.12,1.09-.4,1.26-.8C55.31,46.59,56,44.62,56.79,42.51Z"/></svg>