<svg id="Layer_1" data-name="Layer 1" xmlns="http://www.w3.org/2000/svg" viewBox="0 0 87.67 87.39"><defs><style>.cls-1{fill:#818386;}</style></defs><title>تطبيق الزهور577777</title><path class="cls-1" d="M37.57,10.49c-.71-2.65-2.4-4.13-4.43-5.46a4.28,4.28,0,0,1-1.81-2.65A2.2,2.2,0,0,1,34.51.19a12.62,12.62,0,0,1,7.92,8.53,3,3,0,0,0,2.07,2.2c1.6.64,3,1.78,4.56,2.54a3.5,3.5,0,0,0,2.37.41q8.87-3,17.66-6.15a4.82,4.82,0,0,1,4.76.55c8.81,6,13.17,14.6,13.57,24.92.46,11.83.15,23.68.06,35.53,0,5.26-1.65,10-5.59,13.7a19.22,19.22,0,0,1-10.2,4.93A4.76,4.76,0,0,1,69.42,87Q36,75.36,2.57,63.72A3.33,3.33,0,0,1,0,60.13q.08-12.8,0-25.58a3.45,3.45,0,0,1,2.71-3.71q11.79-4.05,23.54-8.23c.59-.21,1.44-.68,1.52-1.15C28.76,15.83,32,12.27,37.57,10.49ZM10.51,33.63c1,.34,1.48.55,2,.73C23.45,38.15,34.38,42,45.33,45.69c2,.68,2.94,1.76,2.86,4-.14,4-.06,8.07,0,12.1,0,2.14,1.07,3.44,2.67,3.42s2.47-1.18,2.5-3.31c0-2.87,0-5.73,0-8.59,0-3.24,1.43-4.22,4.48-3.16,3.87,1.34,7.73,2.69,11.57,4.1A2.35,2.35,0,0,0,72,53.86C86.77,42,84.42,23.74,72.71,13.79a3.05,3.05,0,0,0-3.49-.65c-4.49,1.69-9.06,3.19-13.6,4.76l-2.84,1C54.74,28.25,50,33.1,45,35c-7.21,2.73-13.91-1.16-16.73-7.61ZM68.77,81.27c0-2.42,0-4.62,0-6.81a1.65,1.65,0,0,0-1.37-1.94C64,71.41,60.58,70.12,57.12,69a3.26,3.26,0,0,0-2.3.21A7.65,7.65,0,0,1,43.74,65.6a3.37,3.37,0,0,0-2.25-2.1C30.06,59.57,18.65,55.58,7.22,51.62c-.59-.21-1.2-.36-2-.6,0,2.28.1,4.35,0,6.4-.09,1.37.44,1.88,1.67,2.31q24.46,8.46,48.9,17ZM43.06,58.63c0-2.45-.08-4.53,0-6.61.06-1.27-.43-1.75-1.6-2.15-11.54-4-23-8-34.57-12-.52-.18-1-.29-1.66-.45v8.07Zm30.8,22.76c4.9-1.89,7.73-5.21,8.11-10,.48-6,.35-12,.47-18.08,0-.87,0-1.74,0-2.55-2.76,2.65-5.42,5.17-8,7.74a1.85,1.85,0,0,0-.52,1.16C73.85,66.84,73.86,74,73.86,81.39Zm-33.26-66A7.58,7.58,0,0,0,32.87,23a7.68,7.68,0,0,0,7.68,7.7A7.8,7.8,0,0,0,48.21,23,7.66,7.66,0,0,0,40.6,15.42ZM58.44,55.83c0,2.73,0,5.18,0,7.63a1.15,1.15,0,0,0,.65.81c3.15,1.12,6.32,2.19,9.65,3.33,0-2.58,0-4.91,0-7.24a1.72,1.72,0,0,0-.8-1.29C64.91,58,61.85,57,58.44,55.83Z"/><path class="cls-1" d="M62.74,32.8a2.6,2.6,0,0,1-2.65,2.52,2.56,2.56,0,0,1-2.45-2.7,2.46,2.46,0,0,1,2.54-2.4A2.54,2.54,0,0,1,62.74,32.8Z"/><path class="cls-1" d="M70.5,19.93A2.69,2.69,0,0,1,73,22.61,2.52,2.52,0,0,1,70.29,25a2.32,2.32,0,0,1-2.36-2.52A2.54,2.54,0,0,1,70.5,19.93Z"/><path class="cls-1" d="M62.79,44.77a2.54,2.54,0,1,1,5.08,0,2.54,2.54,0,0,1-5.08,0Z"/><path class="cls-1" d="M76.41,34.46A2.59,2.59,0,0,1,73.82,37a2.54,2.54,0,0,1-2.5-2.65A2.39,2.39,0,0,1,73.8,32,2.5,2.5,0,0,1,76.41,34.46Z"/></svg>