<svg id="Layer_1" data-name="Layer 1" xmlns="http://www.w3.org/2000/svg" viewBox="0 0 99.56 113.08"><defs><style>.cls-1{fill:#0a0a0a;}.cls-2{fill:#efd364;}.cls-3{fill:#3198ec;}.cls-4{fill:#ed87ad;}.cls-5{fill:#ebc230;}</style></defs><title>تطبيق الزهور577777</title><path class="cls-1" d="M1.43,26.14C.22,25.74-.06,24.87.06,23.67,1,13.83,7.17,3,18.66.5S41.1,4.91,45,17.19a37.3,37.3,0,0,1,.83,19.58c-.51,2.28-.67,4.2,2.1,4.89,1.68.43,4.53-2,4.76-4,.72-6.38,2.53-12.32,6.77-17.32a21.34,21.34,0,0,1,10.93-7c1.3-.35,2.77-.83,3.33,1.14a2.52,2.52,0,0,1-2.13,2c-9.23,2.67-13.26,9.65-15.13,18.39-.39,1.85-.19,2.49,2.14,2.06C67.22,35.29,74.94,40.62,76.17,49c1,6.91-1.84,12.75-5.92,18-1.29,1.66-1.12,2.3.76,3.1,5.26,2.21,11.35.78,16-4.28C94.1,58,96.84,48.51,96,38.18S91.05,19.49,80.11,16.31a2.14,2.14,0,0,1-1.81-2.23c1.27-2.1,3-1,4.47-.49,7.42,2.48,12.26,7.81,14.59,15,4.52,14,2,27-7,38.57A11.75,11.75,0,0,1,87.4,70c-3.26,2-6.32,3.8-4.53,8.64.6,1.64-1,3.06-2.89,3.51-3.47.85-5.91,6-4,9,2.2,3.53,2.3,6.83,0,10.27-1.22,1.8-.88,3.61.24,5.31a8.55,8.55,0,0,1,1.53,4.41A1.74,1.74,0,0,1,76.31,113c-.68.16-1.47-.12-1.55-.76-.32-2.57-2.35-4.44-2.73-7a7.91,7.91,0,0,1,1.3-6,4.82,4.82,0,0,0,0-5.86,7.89,7.89,0,0,1-.08-9.15c.54-.88,1.28-1.67-.68-2.11-3.28-.74-3.91-2.08-3.28-5.55.31-1.7,1.11-3.4-1.38-4.42-1.29-.53-2-.56-3,.4a42.39,42.39,0,0,1-8.65,6.28c-1.35.78-1.9,1.45-1.54,3.18,1,4.8.89,4.83-3.87,7.06-1.48.7-3.69,7.28-2.55,8.73,3.89,4.95.71,9.3-.85,13.8a1.36,1.36,0,0,1-1.83.8,1.69,1.69,0,0,1-1.22-2,9.07,9.07,0,0,1,1.65-4.37,4.68,4.68,0,0,0,.52-4.5c-2.42-6.17-2.43-6.17.09-12.23-5.13-.89-5.68-1.62-4.88-7.1.24-1.64,0-2.66-1.62-3.53a47.5,47.5,0,0,1-10.74-8.2c-1.72-1.69-3.89-1.06-5.16.94-2,3.13-2.52,6-.2,9.25,1.31,1.85,1,4.25,0,6.37-.69,1.51-1.8,2.81-1.94,4.59-.07,1-.9,1.37-1.87,1.19a1.48,1.48,0,0,1-1.27-1.55,7.3,7.3,0,0,1,1.51-4.71,4.4,4.4,0,0,0,.16-5.31c-2.14-3.21-2.35-6.44-.21-9.72.63-1,.92-1.62-.69-1.85-3.27-.49-4.11-2.69-3.3-5.56.71-2.51-.16-3.64-2.35-5.1C5.06,53,1.38,43.66,0,33.17a2,2,0,0,1,1.44-2.44c1.62.24,1.74,1.45,1.92,2.76,1,7,3.3,13.39,7.91,18.8,2.61,3.07,5.68,5.56,9.93,6,3.89,1.09,7.12-.49,10.2-2.59,1.13-.76,2.18-1.72,3.62-.65.88,3.14-1.95,3.58-3.62,4.63a3.07,3.07,0,0,0-1.72,3.41c.32,5.12,4.19,7.48,7.64,9.77,12.25,8.14,9.86,8,21.62.24,6.35-4.18,11.25-9.84,13.39-17.4,2.24-7.9-1.53-14.32-9.19-15.63-4-.69-7.47.69-10.51,3.2-1.73,1.42-3.8,2.66-5.74,1.52-3-1.77-3.56,0-4.39,2.13a32.87,32.87,0,0,1-1.93,3.6A2.07,2.07,0,0,1,38,51.68c-1.39-1.6-.2-2.87.51-4.25,5.12-9.85,6.57-20.1,2.68-30.67C39,10.74,35.11,6,28.47,4.32,21.05,1.8,13.18,4.41,8.29,11A27.1,27.1,0,0,0,3.43,23.4C3.23,24.72,3,25.91,1.43,26.14ZM76.18,79.39c.71-1.63,3.2,1.19,3.35-1.89.15-3.32-2.16-2.81-4.32-3-2.83-.28-2.53,1.71-2.5,3.18C72.76,80.3,75,78.14,76.18,79.39ZM23.12,66.61c1-1.11,3.39,1.23,3.47-1.84C26.69,61.09,24,62.19,22,62c-2.63-.32-2.24,1.87-2.23,3.15C19.84,67.74,22.09,65.66,23.12,66.61Zm25.26,15.9a8.23,8.23,0,0,1-1.24-.17c-1.54-.47-2,.19-2.14,1.66s.6,1.77,1.83,1.7,2.29-.07,3.44-.07c1,0,1.74-.21,1.36-1.4-.24-.77.12-2.08-1.39-2C49.61,82.33,49,82.43,48.38,82.51Z"/><path class="cls-2" d="M1.43,26.14c1.61-.23,1.8-1.42,2-2.74A27.1,27.1,0,0,1,8.29,11c4.89-6.59,12.76-9.2,20.18-6.68A46.92,46.92,0,0,1,33,9.54C40.26,21,39.56,33,34.44,44.92,31.84,51,28.07,56.25,21.23,58.29c-4.25-.44-7.32-2.93-9.93-6-4.61-5.41-6.94-11.84-7.91-18.8-.18-1.31-.3-2.52-1.92-2.76C1.46,29.2,1.45,27.67,1.43,26.14Z"/><path class="cls-3" d="M78.3,14.08a2.14,2.14,0,0,0,1.81,2.23c10.94,3.18,15,11.6,15.87,21.87S94.1,58,87,65.84c-4.61,5.06-10.7,6.49-16,4.28-1.88-.8-2.05-1.44-.76-3.1,4.08-5.28,6.94-11.12,5.92-18-1.23-8.37-9-13.7-17.61-12.13-2.33.43-2.53-.21-2.14-2.06,1.87-8.74,5.9-15.72,15.13-18.39a2.52,2.52,0,0,0,2.13-2Z"/><path class="cls-4" d="M38,51.68a2.07,2.07,0,0,0,2.62-1.16,32.87,32.87,0,0,0,1.93-3.6c.83-2.14,1.39-3.9,4.39-2.13,1.94,1.14,4-.1,5.74-1.52,3-2.51,6.51-3.89,10.51-3.2,7.66,1.31,11.43,7.73,9.19,15.63-2.14,7.56-7,13.22-13.39,17.4-11.76,7.74-9.37,7.9-21.62-.24-3.45-2.29-7.32-4.65-7.64-9.77a3.07,3.07,0,0,1,1.72-3.41c1.67-1,4.5-1.49,3.62-4.63Z"/><path class="cls-5" d="M38,51.68l-2.93,3.37c-1.44-1.07-2.49-.11-3.62.65-3.08,2.1-6.31,3.68-10.2,2.59,6.84-2,10.61-7.31,13.21-13.37C39.56,33,40.26,21,33,9.54a46.92,46.92,0,0,0-4.49-5.22C35.11,6,39,10.74,41.17,16.76c3.89,10.57,2.44,20.82-2.68,30.67C37.78,48.81,36.59,50.08,38,51.68Z"/><path class="cls-3" d="M76.18,79.39c-1.17-1.25-3.42.91-3.47-1.74,0-1.47-.33-3.46,2.5-3.18,2.16.22,4.47-.29,4.32,3C79.38,80.58,76.89,77.76,76.18,79.39Z"/><path class="cls-5" d="M23.12,66.61c-1-1-3.28,1.13-3.31-1.51,0-1.28-.4-3.47,2.23-3.15,1.94.24,4.65-.86,4.55,2.82C26.51,67.84,24.11,65.5,23.12,66.61Z"/><path class="cls-4" d="M48.38,82.51c.62-.08,1.23-.18,1.86-.23,1.51-.13,1.15,1.18,1.39,2,.38,1.19-.39,1.41-1.36,1.4-1.15,0-2.3,0-3.44.07s-2-.16-1.83-1.7.6-2.13,2.14-1.66A8.23,8.23,0,0,0,48.38,82.51Z"/><path class="cls-3" d="M73.94,74h4a1.87,1.87,0,0,1,1.87,1.87v2a1.88,1.88,0,0,1-1.88,1.88h-4a1.88,1.88,0,0,1-1.88-1.88v-2A1.87,1.87,0,0,1,73.94,74Z"/><path class="cls-4" d="M46.38,81.94h4a1.87,1.87,0,0,1,1.87,1.87v.52a1.88,1.88,0,0,1-1.88,1.88h-4a1.88,1.88,0,0,1-1.88-1.88v-.52A1.87,1.87,0,0,1,46.38,81.94Z"/><path class="cls-2" d="M20.76,61.92h4a1.87,1.87,0,0,1,1.87,1.87v1.83a1.88,1.88,0,0,1-1.88,1.88h-4a1.88,1.88,0,0,1-1.88-1.88V63.79a1.87,1.87,0,0,1,1.87-1.87Z"/></svg>