<svg id="Layer_1" data-name="Layer 1" xmlns="http://www.w3.org/2000/svg" viewBox="0 0 95.37 102.08"><defs><style>.cls-1{fill:#080606;}.cls-2{fill:#e68080;}.cls-3{fill:#db7b80;}.cls-4{fill:#e9ebec;}.cls-5{fill:#b48062;}.cls-6{fill:#dfe1e2;}</style></defs><title>تطبيق الزهور577777</title><path class="cls-1" d="M81.19,55.87c-2.5,3.41-5,6.82-7.5,10.23a1.54,1.54,0,0,0-.31,1.81.18.18,0,0,0,0,.25q-1.29,4.95-2.59,9.9l-.71,2.42c-1.37,1.72-3.07,2.6-5.23,1.74-.94-.38-1.36,0-1.83.63q-3,4.31-6,8.59a7.86,7.86,0,0,0-2,2.83c-1.3,1.71-2.59,3.43-3.9,5.14-2.3,3-5.42,3.52-8.49,1.34Q22.69,86.5,2.76,72.19c-3-2.18-3.59-5.37-1.56-8.5C2.29,62,3.45,60.41,4.57,58.77c.83-.76,1.34-2,2.71-2l.9.27c.84,1.21.47,2.21-.31,3.35-1.42,2.08-3.29,3.87-4.14,6.33-.54,1.84.85,2.45,2,3.19l10.15,7.23L18.35,79,28.5,86.18l2.83,2.06,10.15,7.23,2.43,1.77c2.63,2,3.3,1.85,5.16-1.13l1.72-2.43c2.69-3.39,5.2-6.92,7.56-10.55l1.44-2c1.84-1.56,2.18-3.26.73-5.33a36.22,36.22,0,0,1-2-3.69c-.53-2.79-2-3.69-4.85-2.9S47.86,70.28,45,70.8c-1.52,0-2.14-.9-2.35-2.32-.27-1.88-.68-3.73-1-5.59l-.2-1.19a82.08,82.08,0,0,0-1.65-10c-.35-1-1.08-.4-1.61-.33-2.17.3-4.35.65-6.51,1.07a2.57,2.57,0,0,1-2.81-1c-.23-2.81-.46-5.63-.7-8.44l-.11-2c.42-1.68-.76-1.92-1.95-2.18s-2.26-1-3.24.59c-1.46,2.31-3.19,4.46-4.74,6.72-.75,1.09-1.59,1.67-2.92,1.18a2.92,2.92,0,0,1-.74-1.93l1.21-2.08c1.27-1.71,2.55-3.41,3.8-5.12a6.57,6.57,0,0,0,.48-1C18,36.86,16.67,35.91,16.3,34l.58-2a148.27,148.27,0,0,1,14.56-9.36,4.59,4.59,0,0,0,1.86-2.21,8.88,8.88,0,0,0,2-2.84A117.09,117.09,0,0,0,42.59,7.43,6.56,6.56,0,0,0,44.32,5c.6-.69,1.17-1.39,1.79-2.06a8.58,8.58,0,0,1,11.5-1.3Q74.67,13.75,91.63,26a8.51,8.51,0,0,1,2.09,12.1C90,43.54,86.08,48.93,82.26,54.36ZM31.62,40l.22,2.88C31.91,44.4,32,46,32,47.5c0,1.17.5,1.33,1.52,1.12,1.93-.39,3.93-.51,5.82-1,2.4-.64,3.59.2,3.9,2.56l.13.78A88.78,88.78,0,0,0,45.1,61.3l.13.77c.44,5,.44,5,5.28,4.16l2.94-.49c5.26-.87,5.26-.87,7.94,3.63q2.07,4.36,4.13,8.74c.18.38.35.83.81.85.69,0,.68-.57.8-1,.74-3,1.49-5.93,2.24-8.9.25-.7-.28-1.1-.64-1.5q-8.22-8.94-16.47-17.86l-1.41-1.47L34.28,30c-2.92-3.47-2.93-3.48-6.66-1-1.22.82-2.42,1.7-3.62,2.55l-3.67,2.17c2.85.76,5.1,1.52,7.41,1.94C30.27,36.1,31.76,37.23,31.62,40ZM76.18,56.62c1.44-2,2.83-4.1,4.36-6,1.09-1.39,1.15-2.37-.45-3.44q-4.53-3.06-8.89-6.37c-1.14-.85-1.76-.71-2.55.44Q65,46.53,61.12,51.72a1.64,1.64,0,0,0,.21,2.52c2.78,2.95,5.53,5.94,8.2,9,.88,1,1.35.84,2-.14C73.06,60.91,74.63,58.77,76.18,56.62ZM58.73,17.19c1.31-1.83,2.55-3.7,3.94-5.46.9-1.14.69-1.79-.47-2.55-2.14-1.42-4.17-3-6.3-4.46-2.82-1.91-5.59-1.54-7.69,1.15s-3.88,5.4-5.85,8.07c-.71,1-.61,1.51.38,2.2q4.92,3.41,9.72,7c1.08.81,1.68.61,2.38-.44C56.08,20.8,57.43,19,58.73,17.19ZM73.78,28.05h0c1.25-1.75,2.45-3.55,3.78-5.24,1-1.2,1.09-2-.37-2.92-3-2-6-4.16-8.91-6.35-1.24-.94-2-1-2.93.4q-3.62,5.36-7.52,10.51c-1,1.38-.7,2,.57,2.91,3,2.06,6,4.18,8.9,6.37,1.18.89,1.9,1,2.75-.39C71.19,31.51,72.52,29.8,73.78,28.05ZM78,41.34h0c1.61,1.16,3.26,2.28,4.84,3.48.85.66,1.4.55,2-.32,2-2.92,4.21-5.75,6.18-8.72a5,5,0,0,0-1.13-6.69c-2.28-1.79-4.72-3.37-7-5.12-1-.75-1.54-.47-2.18.45q-4,5.7-8.09,11.32c-.65.88-.55,1.41.33,2C74.64,38.9,76.3,40.14,78,41.34ZM62.23,44.18h0c1.2-1.68,2.37-3.4,3.63-5,.74-1,.86-1.6-.29-2.39-3.22-2.2-6.4-4.47-9.51-6.81-1.18-.89-1.79-.62-2.54.5-1.62,2.4-3.27,4.8-5.07,7.08-.94,1.19-.71,2,.22,2.95,2.23,2.34,4.38,4.75,6.57,7.13,2.53,2.75,2.53,2.75,4.8-.39ZM45.76,22.61h0l-1.22-.87c-5.26-3.76-5.18-3.71-9,1.62-1.09,1.52-.59,2.37.51,3.3,1.54,1.32,1.85-.44,2.29-1.11,1.3-2,2.7-2.22,4.47-.66a13,13,0,0,0,1.41,1c1.06.74,2.2,1.59,1.27,3s-2.15.73-3.19-.07c-.73-.55-1.35-.9-2.08.06s-.83,1.5,0,2.35c1.22,1.23,2.4,2.52,3.51,3.85.87,1,1.46,1.06,2.24-.11,1.53-2.27,3.13-4.49,4.77-6.68.76-1,.76-1.66-.37-2.39C48.82,24.89,47.31,23.72,45.76,22.61Z"/><path class="cls-2" d="M39.72,51.74a82.08,82.08,0,0,1,1.65,10c-1-.69-2.09-.28-3.13-.11L6.62,66.81c-1,.16-1.94.6-2.89,0,.85-2.46,2.72-4.25,4.14-6.33.78-1.14,1.15-2.14.31-3.35l.36-.38c.93.88,2,.53,3.06.36l25.45-4.22C38,52.68,39.06,52.67,39.72,51.74Z"/><path class="cls-2" d="M28.09,43.07c.24,2.81.47,5.63.7,8.44-4.57,1.9-9.51,1.91-14.27,2.86-.71.15-1.21-.42-1.75-.79a2,2,0,0,0-.09-2.81l2.45-3.41c1.33.49,2.17-.09,2.92-1.18,1.55-2.26,3.28-4.41,4.74-6.72,1-1.55,2.08-.84,3.24-.59s2.37.5,1.95,2.18c-2.18.06-4.44-.17-6.22,1.46-.37.33-1,.84-.53,1.47s.91.24,1.37.16C24.43,43.8,26.26,43.43,28.09,43.07Z"/><path class="cls-3" d="M12.77,53.58c.54.37,1,.94,1.75.79,4.76-.95,9.7-1,14.27-2.86a2.57,2.57,0,0,0,2.81,1c2.16-.42,4.34-.77,6.51-1.07.53-.07,1.26-.65,1.61.33-.66.93-1.7.94-2.67,1.1L11.6,57.06c-1.06.17-2.13.52-3.06-.36l2-2.91A3.22,3.22,0,0,0,12.77,53.58Z"/><path class="cls-1" d="M12.77,53.58a3.22,3.22,0,0,1-2.22.21c-.57-.84-1-1.74-.29-2.65a1.91,1.91,0,0,1,2.42-.37A2,2,0,0,1,12.77,53.58Z"/><path class="cls-2" d="M58.53,72.08a36.22,36.22,0,0,0,2,3.69c1.45,2.07,1.11,3.77-.73,5.33-.76-.57-1.58-.29-2.39-.16L30.51,85.4c-.72.12-1.5.12-2,.78L18.35,79c.64-.83,1.62-.74,2.5-.89q17.61-2.94,35.23-5.83A22.37,22.37,0,0,1,58.53,72.08Z"/><path class="cls-2" d="M41.57,62.89c.35,1.86.76,3.71,1,5.59.21,1.42.83,2.29,2.35,2.32-.62,1.18-1.82,1-2.84,1.22-7.79,1.31-15.58,2.59-23.37,3.89-1,.17-2.2.14-2.82,1.27L5.77,70c.72-.89,1.8-.77,2.75-.92,10-1.69,20.08-3.34,30.12-5C39.69,63.84,40.83,63.88,41.57,62.89Z"/><path class="cls-4" d="M61.39,69.37c-2.68-4.5-2.68-4.5-7.94-3.63l-2.94.49c-4.84.8-4.84.8-5.28-4.16,4.79.27,9.34-1.29,14-1.85.49-.06,1.09-.25.72-.94a1.53,1.53,0,0,0-1.76-1c-3.92.7-7.86,1.33-11.79,2a1.94,1.94,0,0,0-1.32,1,88.78,88.78,0,0,1-1.71-10.36c3.16,1,6,.13,8.87-1.29q8.24,8.93,16.47,17.86c.36.4.89.8.64,1.5C66.61,66.93,64,68.3,61.39,69.37Z"/><path class="cls-5" d="M76.18,56.62c-1.55,2.15-3.12,4.29-4.62,6.48-.68,1-1.15,1.15-2,.14-2.67-3.06-5.42-6.05-8.2-9a1.64,1.64,0,0,1-.21-2.52Q65,46.53,68.65,41.2c.79-1.15,1.41-1.29,2.55-.44q4.36,3.3,8.89,6.37c1.6,1.07,1.54,2,.45,3.44C79,52.52,77.62,54.6,76.18,56.62ZM73.74,47c-3.2-2.35-3.36-2.33-5.59.85l-1,1.41c-.71,1-.85,2.07.26,2.8a1.69,1.69,0,0,0,2.53-.72c.82-1.37,1.65-1.93,3-.63.9.84,2,1,2.79-.12s.2-2-.81-2.73C74.54,47.59,74.14,47.29,73.74,47Z"/><path class="cls-4" d="M43.26,50.16c-.31-2.36-1.5-3.2-3.9-2.56-1.89.51-3.89.63-5.82,1-1,.21-1.52.05-1.52-1.12,0-1.55-.11-3.1-.18-4.66,2.55-1.68,5.61-1.18,8.36-2,.69-.21,2,.22,1.88-1s-1.19-1.3-2.34-1.09c-2.69.47-5.41.8-8.12,1.18.14-2.73-1.35-3.86-3.88-4.31-2.31-.42-4.56-1.18-7.41-1.94L24,31.54c.45,1.09,1.34.78,2.1.57,2.71-.78,5.79-.12,8.18-2.13l16.57,18.2C48.43,49.26,45.58,48.7,43.26,50.16Z"/><path class="cls-5" d="M58.73,17.19c-1.3,1.82-2.65,3.61-3.89,5.48-.7,1-1.3,1.25-2.38.44q-4.8-3.57-9.72-7c-1-.69-1.09-1.25-.38-2.2,2-2.67,3.81-5.45,5.85-8.07s4.87-3.06,7.69-1.15c2.13,1.45,4.16,3,6.3,4.46,1.16.76,1.37,1.41.47,2.55C61.28,13.49,60,15.36,58.73,17.19ZM55.38,8.6c-3.18-2.28-3.32-2.25-5.62,1l-.72,1c-.73,1-1.14,2.17.11,3s2.07.11,2.66-.92c.76-1.33,1.55-1.47,2.71-.44,1,.85,2.17,1.16,3-.12S57.41,10,56.39,9.32C56.05,9.09,55.72,8.84,55.38,8.6Z"/><path class="cls-5" d="M73.78,28.05c-1.26,1.75-2.59,3.46-3.74,5.28-.85,1.35-1.57,1.28-2.75.39-2.91-2.19-5.89-4.31-8.9-6.37-1.27-.86-1.61-1.53-.57-2.91q3.9-5.14,7.52-10.51c1-1.42,1.69-1.34,2.93-.4,2.91,2.19,5.87,4.34,8.91,6.35,1.46,1,1.32,1.72.37,2.92C76.22,24.49,75,26.29,73.77,28Zm-8.6-7.88c-.33.46-.56.81-.81,1.14-.82,1.05-1.49,2.26-.12,3.22,1.18.83,2.25.08,2.86-1.05.85-1.57,1.73-1,2.73-.22a1.77,1.77,0,0,0,2.48.11,1.42,1.42,0,0,0,.4-2A9.68,9.68,0,0,0,68,18C66.32,17.51,66,19.41,65.18,20.17Z"/><path class="cls-5" d="M78,41.34c-1.69-1.2-3.35-2.44-5.07-3.6-.88-.6-1-1.13-.33-2q4.09-5.62,8.09-11.32c.64-.92,1.18-1.2,2.18-.45,2.31,1.75,4.75,3.33,7,5.12A5,5,0,0,1,91,35.77c-2,3-4.14,5.8-6.18,8.72-.6.87-1.15,1-2,.32-1.58-1.2-3.23-2.32-4.84-3.48Zm7.7-11.05c-3.27-2.34-3.27-2.34-5.62.93-.34.47-.68,1-1,1.41a1.74,1.74,0,0,0,.23,2.65,1.66,1.66,0,0,0,2.57-.58c.91-1.62,1.85-1.85,3.26-.56a1.65,1.65,0,0,0,2.62-.26,1.73,1.73,0,0,0-.62-2.58C86.64,31,86.17,30.62,85.69,30.29Z"/><path class="cls-5" d="M62.23,44.18l-2.18,3c-2.27,3.14-2.27,3.14-4.8.39-2.19-2.38-4.34-4.79-6.57-7.13-.93-1-1.16-1.76-.22-2.95,1.8-2.28,3.45-4.68,5.07-7.08.75-1.12,1.36-1.39,2.54-.5,3.11,2.34,6.29,4.61,9.51,6.81,1.15.79,1,1.42.29,2.39-1.26,1.64-2.43,3.36-3.63,5Zm-3.71-8.09c-3.12-2.19-3.17-2.19-5.44.95-.29.4-.57.81-.87,1.21-.7.93-1.19,2-.12,2.85s2.22.37,2.9-.74,1.46-1.69,2.7-.57c1,.86,2.1,1.22,3-.12.75-1.16,0-2-.91-2.71Z"/><path class="cls-2" d="M58.35,83.13c-2.36,3.63-4.87,7.16-7.56,10.55-3.27-.27-6.45-.09-9.31,1.79L31.33,88.24c.73-.89,1.81-.76,2.76-.92C42.17,85.9,50.26,84.52,58.35,83.13Z"/><path class="cls-5" d="M45.76,22.61c1.55,1.11,3.06,2.28,4.66,3.31,1.13.73,1.13,1.38.37,2.39C49.15,30.5,47.55,32.72,46,35c-.78,1.17-1.37,1.15-2.24.11-1.11-1.33-2.29-2.62-3.51-3.85-.84-.85-.66-1.51,0-2.35s1.35-.61,2.08-.06c1,.8,2.24,1.53,3.19.07s-.21-2.27-1.27-3a13,13,0,0,1-1.41-1c-1.77-1.56-3.17-1.37-4.47.66-.44.67-.75,2.43-2.29,1.11-1.1-.93-1.6-1.78-.51-3.3,3.79-5.33,3.71-5.38,9-1.62l1.22.87Z"/><path class="cls-3" d="M15.92,77.18c.62-1.13,1.77-1.1,2.82-1.27,7.79-1.3,15.58-2.58,23.37-3.89,1-.18,2.22,0,2.84-1.22,2.91-.52,5.89-.83,8.73-1.62s4.32.11,4.85,2.9a22.37,22.37,0,0,0-2.45.15q-17.62,2.89-35.23,5.83c-.88.15-1.86.06-2.5.89Z"/><path class="cls-3" d="M41.57,62.89c-.74,1-1.88,1-2.93,1.12-10,1.68-20.08,3.33-30.12,5-.95.15-2,0-2.75.92-1.19-.74-2.58-1.35-2-3.19.95.65,1.93.21,2.89,0l31.62-5.22c1-.17,2.11-.58,3.13.11C41.44,62.1,41.5,62.5,41.57,62.89Z"/><path class="cls-3" d="M58.35,83.13c-8.09,1.39-16.18,2.77-24.26,4.19-1,.16-2,0-2.76.92L28.5,86.18c.51-.66,1.29-.66,2-.78L57.4,80.94c.81-.13,1.63-.41,2.39.16Z"/><path class="cls-6" d="M61.39,69.37c2.62-1.07,5.22-2.44,8-.36-.75,3-1.5,5.93-2.24,8.9-.12.48-.11,1.07-.8,1-.46,0-.63-.47-.81-.85Q63.47,73.75,61.39,69.37Z"/><path class="cls-6" d="M45.1,61.3a1.94,1.94,0,0,1,1.32-1c3.93-.66,7.87-1.29,11.79-2a1.53,1.53,0,0,1,1.76,1c.37.69-.23.88-.72.94-4.68.56-9.23,2.12-14,1.85Z"/><path class="cls-6" d="M34.28,30c-2.39,2-5.47,1.35-8.18,2.13-.76.21-1.65.52-2.1-.57,1.2-.85,2.4-1.73,3.62-2.55C31.35,26.5,31.36,26.51,34.28,30Z"/><path class="cls-6" d="M31.62,40c2.71-.38,5.43-.71,8.12-1.18,1.15-.21,2.2,0,2.34,1.09s-1.19.78-1.88,1c-2.75.8-5.81.3-8.36,2Z"/><path class="cls-3" d="M41.48,95.47c2.86-1.88,6-2.06,9.31-1.79l-1.72,2.43c-1.78.09-3.6,0-5.16,1.13Z"/><path class="cls-6" d="M43.26,50.16c2.32-1.46,5.17-.9,7.59-2l1.41,1.47c-2.82,1.42-5.71,2.26-8.87,1.29Z"/><path class="cls-3" d="M28.09,43.07c-1.83.36-3.66.73-5.49,1.07-.46.08-1,.32-1.37-.16s.16-1.14.53-1.47c1.78-1.63,4-1.4,6.22-1.46C28,41.72,28.06,42.39,28.09,43.07Z"/><path class="cls-2" d="M43.91,97.24c1.56-1.12,3.38-1,5.16-1.13C47.21,99.09,46.54,99.23,43.91,97.24Z"/><path class="cls-1" d="M73.74,47c.4.28.8.58,1.21.86,1,.7,1.53,1.67.81,2.73s-1.89,1-2.79.12c-1.38-1.3-2.21-.74-3,.63a1.69,1.69,0,0,1-2.53.72c-1.11-.73-1-1.79-.26-2.8l1-1.41C70.38,44.68,70.54,44.66,73.74,47Z"/><path class="cls-1" d="M55.38,8.6c.34.24.67.49,1,.72,1,.7,2,1.54,1.13,2.83s-2,1-3,.12c-1.16-1-2-.89-2.71.44-.59,1-1.52,1.71-2.66.92s-.84-2-.11-3l.72-1C52.06,6.35,52.2,6.32,55.38,8.6Z"/><path class="cls-1" d="M65.18,20.17C66,19.41,66.32,17.51,68,18a9.68,9.68,0,0,1,4.77,3.39,1.42,1.42,0,0,1-.4,2,1.77,1.77,0,0,1-2.48-.11c-1-.82-1.88-1.35-2.73.22-.61,1.13-1.68,1.88-2.86,1.05-1.37-1-.7-2.17.12-3.22C64.62,21,64.85,20.63,65.18,20.17Z"/><path class="cls-1" d="M85.69,30.29c.48.33,1,.68,1.42,1a1.73,1.73,0,0,1,.62,2.58,1.65,1.65,0,0,1-2.62.26c-1.41-1.29-2.35-1.06-3.26.56a1.66,1.66,0,0,1-2.57.58,1.74,1.74,0,0,1-.23-2.65c.34-.46.68-.94,1-1.41C82.42,28,82.42,28,85.69,30.29Z"/><path class="cls-1" d="M58.52,36.09l1.21.87c1,.69,1.66,1.55.91,2.71-.85,1.34-2,1-3,.12-1.24-1.12-1.95-.64-2.7.57s-1.74,1.69-2.9.74-.58-1.92.12-2.85c.3-.4.58-.81.87-1.21C55.35,33.9,55.4,33.9,58.52,36.09Z"/></svg>